<?xml version="1.0" encoding="utf-8"?>
<!-- Generator: Adobe Illustrator 16.0.4, SVG Export Plug-In . SVG Version: 6.00 Build 0)  -->
<!DOCTYPE svg PUBLIC "-//W3C//DTD SVG 1.1//EN" "http://www.w3.org/Graphics/SVG/1.1/DTD/svg11.dtd">
<svg version="1.1" id="Layer_1" xmlns="http://www.w3.org/2000/svg" xmlns:xlink="http://www.w3.org/1999/xlink" x="0px" y="0px"
	 width="413.394px" height="467.692px" viewBox="116.773 176.604 413.394 467.692"
	 enable-background="new 116.773 176.604 413.394 467.692" xml:space="preserve">
<g id="arm">
	<path fill="#DCDCDB" d="M298.306,487.275c-27.278,18.535-103.166-0.35-128.345-12.59c-25.179-12.24-10.491-54.205,14.688-41.966
		c25.18,12.24,66.096,44.414,92.325,30.426c0,0,14.338-9.792,23.431-0.7C309.147,471.188,306.35,481.68,298.306,487.275z"/>
</g>
<g id="body">
	<path fill="#D9D9D8" d="M336.075,596.387c-4.896,0-9.442-2.099-12.59-6.295c-5.245-6.994-3.848-16.787,3.146-22.031
		c19.935-15.038,49.66-23.081,67.495-5.945c3.497,1.749,14.338,1.397,20.283-4.196c7.693-6.994,2.099-22.032-2.098-30.426
		c-3.849-7.693-0.7-17.136,7.344-20.982c7.692-3.847,17.136-0.698,20.981,7.345c20.983,43.015,0.351,63.998-9.441,70.991
		c-18.186,12.939-46.162,12.939-59.103,0c-2.798-2.798-16.087,0.351-26.928,8.395C342.37,595.337,339.223,596.387,336.075,596.387z"
		/>
	<path fill="#90B3C6" d="M453.229,610.025c0,16.437-83.58,34.271-154.224,34.271c-70.643,0-114.356-6.994-114.356-23.431
		c0-16.438,189.195-102.116,189.195-31.476C373.495,632.757,453.229,593.239,453.229,610.025z"/>
	<path fill="#EAEAEA" d="M353.911,453.004c0,0,2.798-25.879-57.354-25.879c-60.151,0-60.85,25.879-60.85,25.879L218.92,604.779
		c0,0,39.518,6.994,79.385,10.49c-10.491,8.395-19.934,15.038-22.382,16.088c-7.344,3.146,30.775,9.093,38.469,6.295
		c20.982-7.693,48.96-19.584,57.003-26.229c1.398-0.699,2.448-1.748,3.497-2.447C396.576,587.294,353.911,453.004,353.911,453.004z"
		/>
	<path fill="#FFFFFF" d="M321.038,517.351c-10.842,0.351-17.136-6.993-20.284-12.238c8.743,0.698,16.086-4.197,16.086-4.197
		c-10.841,2.798-18.884-3.497-22.731-7.693c-6.995-18.186-15.388-30.774-24.48-30.774c-7.694,0-15.038,8.743-21.333,22.73
		c-2.798,2.1-7.694,5.246-13.639,3.147c0,0,4.896,4.197,10.841,3.497c-0.35,0.351-0.35,1.05-0.7,1.398
		c-2.797,2.798-8.743,7.345-16.086,3.848c0,0,5.945,5.596,13.289,4.546c-9.442,28.327-15.388,66.796-15.388,94.424
		c0,49.659,14.338,17.136,38.119,17.136c23.78,0,47.911,32.174,47.911-17.136c0-22.732-4.195-53.157-10.841-79.036
		C310.896,521.548,321.038,517.351,321.038,517.351z"/>
	<path fill="#D9D9D8" d="M361.255,471.538c12.24,20.983-4.196,58.053-13.639,63.647c-30.426,16.786-47.562-20.982-31.476-28.326
		c10.143-4.547,37.42-10.842,27.628-29.376c0,0-2.447-10.143,5.596-12.591C357.758,462.096,361.255,471.538,361.255,471.538z"/>
	<g>
		<path fill="#E1E1E0" d="M272.427,576.803c0,0-3.147,1.748-8.393,4.896v-0.351c0.7-7.692-1.049-13.987-4.196-18.885
			c-1.749-11.54-7.694-24.13-15.388-24.479c-4.896-0.352-9.442,3.847-13.289,9.792c-4.197-5.597-9.792-9.792-15.038-9.094
			c-4.197,0.699-7.694,4.547-9.792,9.442c-3.847-3.848-8.043-5.945-11.891-5.246c-3.497,1.049-5.945,4.546-7.344,9.442
			c-1.749-0.351-3.847-0.351-5.246,0.35c-7.694,3.497-8.043,20.633-3.847,30.075c0.7,1.749,1.749,3.146,2.798,4.547
			c0.35,3.497,1.399,6.994,3.147,10.841c13.989,30.775,33.573,36.721,47.561,33.572c2.099-0.35,3.847-1.049,5.596-1.398
			c21.682-3.847,71.342-35.671,77.986-40.217C323.136,585.195,272.427,576.803,272.427,576.803z"/>
		<g>
			
				<ellipse transform="matrix(-0.9995 0.0321 -0.0321 -0.9995 497.6372 1107.8741)" fill="#EACCCC" cx="239.922" cy="557.933" rx="8.743" ry="14.688"/>
			
				<ellipse transform="matrix(-0.9815 0.1914 -0.1914 -0.9815 533.4594 1062.1481)" fill="#EACCCC" cx="215.427" cy="556.84" rx="6.645" ry="11.89"/>
			
				<ellipse transform="matrix(-0.9533 0.302 -0.302 -0.9533 549.8623 1032.1969)" fill="#EACCCC" cx="195.135" cy="558.606" rx="6.645" ry="10.491"/>
			
				<ellipse transform="matrix(-0.984 0.1784 -0.1784 -0.984 462.0465 1101.5693)" fill="#EACCCC" cx="181.505" cy="571.555" rx="3.148" ry="10.492"/>
			<path fill="#EACCCC" d="M186.397,591.49c2.099-1.398,16.087-14.688,22.731-16.087c6.295-1.398,22.032-3.147,29.376,2.798
				c7.344,5.945,11.541,10.142-2.098,16.437c-13.639,6.646-20.283-3.146-28.676-0.35c-8.743,2.798-19.584,3.497-19.584,3.497
				L186.397,591.49z"/>
		</g>
	</g>
	<g>
		<path fill="#EAEAEA" d="M342.37,576.803c1.749-12.938-0.699-27.628-8.743-30.426c-4.896-1.748-11.19,1.05-17.136,6.295
			c-2.798-7.344-7.344-13.289-12.939-13.988c-4.546-0.698-9.442,2.448-13.289,6.994c-2.797-5.246-6.645-8.743-10.841-9.093
			c-3.847,0-7.694,3.147-10.841,7.694c-1.749-1.051-3.847-1.399-5.595-1.399c-9.442,1.399-14.688,19.234-13.29,30.425
			c0.35,2.1,0.7,4.197,1.749,5.945c-0.35,3.848-0.35,7.694,0,12.24c5.596,36.72,24.13,48.96,39.868,50.009
			c24.83,1.749,37.07-10.143,49.31-43.714C344.119,590.092,344.119,583.098,342.37,576.803z"/>
		
			<ellipse transform="matrix(-0.9997 0.0243 -0.0243 -0.9997 528.3718 1118.5374)" fill="#EACCCC" cx="257.391" cy="562.479" rx="3.497" ry="11.541"/>
		<defs>
			<filter id="Adobe_OpacityMaskFilter" filterUnits="userSpaceOnUse" x="264.397" y="543.229" width="6.631" height="11.033">
				<feColorMatrix  type="matrix" values="1 0 0 0 0  0 1 0 0 0  0 0 1 0 0  0 0 0 1 0"/>
			</filter>
		</defs>
		<mask maskUnits="userSpaceOnUse" x="264.397" y="543.229" width="6.631" height="11.033" id="SVGID_1_">
			<g filter="url(#Adobe_OpacityMaskFilter)">
				<path fill="#FFFFFF" d="M283.618,569.108c1.399,11.19-4.896,20.982-14.338,22.382c-9.442,1.397-18.185-6.646-19.584-17.835
					c-1.398-11.191,3.847-29.026,13.29-30.427C272.427,541.831,282.219,557.918,283.618,569.108z"/>
			</g>
		</mask>
		<path opacity="0.2" mask="url(#SVGID_1_)" enable-background="new    " d="M266.133,543.229c0,0,1.049,4.197-1.399,10.143
			c-2.099,4.547,6.294-9.792,6.294-9.792L266.133,543.229z"/>
		<defs>
			<filter id="Adobe_OpacityMaskFilter_1_" filterUnits="userSpaceOnUse" x="285.898" y="541.831" width="7.163" height="16.488">
				<feColorMatrix  type="matrix" values="1 0 0 0 0  0 1 0 0 0  0 0 1 0 0  0 0 0 1 0"/>
			</filter>
		</defs>
		<mask maskUnits="userSpaceOnUse" x="285.898" y="541.831" width="7.163" height="16.488" id="SVGID_2_">
			<g filter="url(#Adobe_OpacityMaskFilter_1_)">
				<path fill="#FFFFFF" d="M295.858,567.011c-0.35,11.891-8.043,20.982-17.486,20.982c-9.442-0.351-16.786-9.792-16.437-21.684
					c0.35-11.89,8.393-29.726,17.835-29.376C288.864,536.935,296.208,555.12,295.858,567.011z"/>
			</g>
		</mask>
		<path opacity="0.2" mask="url(#SVGID_2_)" enable-background="new    " d="M288.514,541.831c0,0,0.7,5.245-2.098,14.338
			c-2.798,8.394,6.645-10.491,6.645-10.491L288.514,541.831z"/>
		
			<ellipse transform="matrix(-0.996 -0.0894 0.0894 -0.996 545.3854 1143.7769)" fill="#EACCCC" cx="298.314" cy="559.671" rx="7.344" ry="13.289"/>
		
			<ellipse transform="matrix(-0.9997 0.0244 -0.0244 -0.9997 567.3987 1103.9779)" fill="#EACCCC" cx="276.964" cy="555.451" rx="7.344" ry="11.541"/>
		<defs>
			<filter id="Adobe_OpacityMaskFilter_2_" filterUnits="userSpaceOnUse" x="311.761" y="547.076" width="6.829" height="13.423">
				<feColorMatrix  type="matrix" values="1 0 0 0 0  0 1 0 0 0  0 0 1 0 0  0 0 0 1 0"/>
			</filter>
		</defs>
		<mask maskUnits="userSpaceOnUse" x="311.761" y="547.076" width="6.829" height="13.423" id="SVGID_3_">
			<g filter="url(#Adobe_OpacityMaskFilter_2_)">
				<path fill="#FFFFFF" d="M319.289,570.857c-1.398,11.539-11.19,19.934-22.032,18.533c-10.492-1.397-18.186-11.89-16.437-23.431
					c1.398-11.54,12.24-28.677,23.081-27.277C314.394,540.082,320.688,559.316,319.289,570.857z"/>
			</g>
		</mask>
		<path opacity="0.2" mask="url(#SVGID_3_)" enable-background="new    " d="M314.743,547.076c0,0,0.35,7.345-2.448,12.24
			s6.295-6.994,6.295-6.994L314.743,547.076z"/>
		
			<ellipse transform="matrix(-0.9689 -0.2476 0.2476 -0.9689 497.5745 1198.7286)" fill="#EACCCC" cx="324.16" cy="568.078" rx="9.442" ry="16.088"/>
		<path fill="#EACCCC" d="M255.641,585.195c1.749-3.147,21.333-10.491,28.677-10.143c7.344,0.351,24.13,3.147,30.076,11.892
			c5.944,8.393,9.093,13.987-7.345,16.786c-16.437,2.447-20.283-9.442-30.425-9.094c-10.142,0.35-19.934-1.049-21.682-2.099
			C253.543,591.141,253.893,588.343,255.641,585.195z"/>
	</g>
	<path opacity="0.07" enable-background="new    " d="M377.691,549.524c0,0,8.043,44.413-1.05,57.702
		c-5.596,8.043-28.326,17.137-56.305,28.678c-6.295-1.749,34.622-19.234,43.715-31.824
		C376.293,586.595,379.44,563.163,377.691,549.524z"/>
</g>
<g id="Head_1_">
	<g>
		<g>
			<path fill="#DEDEDE" d="M288.864,233.732c0,0-66.445-49.31-84.281-44.064s-6.995,88.828-3.147,109.111L288.864,233.732z"/>
			<path fill="#C2C2C1" d="M277.673,237.229c0,0-52.107-38.468-66.096-34.622c-13.989,4.197-5.246,69.244-2.448,85.331
				L277.673,237.229z"/>
		</g>
		<path fill="#EAEAEA" d="M304.601,232.684c-66.096-10.142-127.296,26.578-145.131,83.582c-3.847,2.798-8.393,4.546-14.688,3.847
			c0,0,5.595,2.798,12.939,2.448c-0.35,1.399-0.7,3.147-1.049,4.546c-2.448,1.399-4.896,2.797-8.393,3.147c0,0,3.497,0.699,7.694,0
			c0,0.699-0.35,1.049-0.35,1.749c-10.142,66.096,39.867,128.695,111.908,139.536c72.041,11.19,138.486-33.572,148.629-99.319
			C426.651,306.124,376.643,243.524,304.601,232.684z"/>
		<g>
			<path fill="#DEDEDE" d="M312.295,237.58c0,0,107.013-22.731,129.045-11.191c22.031,11.541-22.73,86.379-35.32,104.215"/>
			<path fill="#C2C2C1" d="M325.934,244.574c0,0,83.582-17.835,101.067-8.743c17.136,8.743-17.835,67.495-27.627,81.483"/>
		</g>
		<path fill="#CCCCCC" d="M188.496,322.56c-1.399,9.442,5.945,11.89,15.387,13.639c9.442,1.399,17.486,1.399,18.885-8.043
			c1.399-9.442-4.896-18.185-14.688-19.934C198.987,306.823,189.895,313.118,188.496,322.56z"/>
		<g>
			<path d="M201.086,325.708c-0.7,4.546,3.847,1.399,8.393,2.098c4.546,0.7,8.043,5.246,8.743,0.35
				c0.699-4.546-2.448-9.092-7.344-9.792C206.332,317.664,201.785,320.812,201.086,325.708z"/>
		</g>
		<g>
			<path d="M279.072,337.598c-0.699,4.546,3.847,1.399,8.394,2.098c4.546,0.7,8.043,5.246,8.743,0.35
				c0.699-4.546-2.448-9.093-7.344-9.792C283.968,329.554,279.771,333.051,279.072,337.598z"/>
		</g>
		<g>
			<path fill="#EAEAEA" d="M408.116,341.794c0,0,3.146,27.977,27.277,32.523c0,0-31.475,5.246-40.218-26.928"/>
			<path fill="#EAEAEA" d="M408.116,348.789c0,0-4.196,27.627,17.836,38.469c0,0-31.824-3.147-31.824-36.72"/>
		</g>
		<g>
			<path fill="#EDA8AA" d="M218.921,396c0.7,13.639,8.043,24.48,18.885,26.229c10.492,1.749,20.983-6.645,25.879-19.233
				c-20.983-3.497-21.333-23.431-21.333-23.431S240.953,394.251,218.921,396z"/>
			<line fill="none" x1="245.15" y1="362.427" x2="242.702" y2="378.165"/>
			<path d="M287.465,385.159c-1.749,10.142-12.59,17.136-24.48,15.387c-5.945-1.049-10.841-3.847-14.338-8.043
				c-3.497-4.197-5.246-9.442-4.546-14.338l1.399-7.694c4.896,0,9.092-3.497,10.142-8.393c0.699-5.246-3.497-6.994-8.743-7.694
				c-5.246-0.699-9.792-0.699-10.841,4.546c-0.699,4.546,1.749,9.093,5.945,10.492l-1.049,9.092l0,0
				c-1.749,10.142-12.59,16.787-24.13,15.038c-5.945-1.049-10.841-3.847-14.338-8.043c-3.497-4.197-4.896-9.093-4.196-13.989
				l-3.497-0.699c-1.049,5.945,0.699,11.89,4.896,16.786c4.196,4.896,9.792,8.043,16.437,9.092c1.399,0.35,2.797,0.35,4.196,0.35
				c9.093,0,17.136-4.196,21.333-11.19c0.7,3.147,2.448,5.945,4.546,8.743c4.197,4.896,9.792,8.042,16.437,9.092
				c1.399,0.35,2.798,0.35,4.197,0.35c11.89,0,22.382-7.693,24.13-18.534L287.465,385.159z"/>
		</g>
		<path opacity="0.09" enable-background="new    " d="M416.51,372.219c9.792,3.498,18.885,2.099,18.885,2.099
			c-8.394-1.399-13.988-5.945-18.186-10.841c1.749-25.529-5.596-50.359-19.234-71.342c-22.031,0-43.015,3.147-48.96,13.289
			c-12.239,21.683,0,83.232,20.635,108.062c7.344,8.742,10.49,15.736,12.938,22.73c15.037-14.688,25.878-31.474,31.475-52.457
			c6.295,3.147,11.891,3.498,11.891,3.498c-4.547-2.448-8.044-5.246-10.841-8.743c0.35-1.749,0.698-3.847,1.049-5.945
			C416.51,372.919,416.51,372.569,416.51,372.219z"/>
		<g>
			<path fill="#FFFFFF" d="M435.395,310.67c0.699,9.442-9.441,42.665-23.08,41.965c-13.641-0.699-19.234-0.35-39.52-21.333
				c-20.283-20.983-33.223-53.506-66.795-68.194c-33.573-14.688-56.304-19.584-64.697-27.977
				c-8.393-8.043,4.896-22.731,7.694-31.824c2.798-9.093,14.688-5.945,42.315,3.847c27.278,9.792,81.833,41.616,106.663,67.495
				C423.154,300.528,434.695,305.074,435.395,310.67z"/>
			<g>
				<path opacity="0.09" enable-background="new    " d="M412.312,352.635c13.64,0.7,23.78-32.523,23.081-41.965
					c-0.35-3.147-4.547-6.295-12.59-12.939c-4.896,1.398-10.841,2.098-17.836,1.749c-30.773-1.049-25.879-6.295-41.266-6.295
					c-8.044,0-11.191,4.896-12.59,10.142c7.344,9.792,13.987,19.584,21.682,27.977C393.079,352.635,398.674,351.936,412.312,352.635
					z"/>
			</g>
			<path fill="#C24F27" d="M415.461,314.517c0,0,27.277-34.272,32.873-52.807c5.595-18.535,29.376-30.076,43.015-19.584
				c13.64,10.491,20.283-24.48,20.283-24.48s-12.938-22.731-61.2-32.873c-47.91-10.142-97.569-10.841-129.394-2.098
				c-31.824,8.743-57.703,25.529-57.703,25.529s-2.448,6.645,24.48,20.283c26.928,13.639,48.959,22.731,66.096,46.163
				C371.047,298.08,407.067,314.866,415.461,314.517z"/>
			<circle fill="#FFFFFF" cx="505.688" cy="229.186" r="24.48"/>
			<g>
				<path opacity="0.09" enable-background="new    " d="M418.258,236.53c-7.344-1.049-15.387,5.246-22.729,12.24
					c-7.346,7.344-12.24,12.24-17.486,18.535c-3.147,3.847-7.693,13.989-9.792,22.032c17.836,15.038,40.917,25.18,47.212,24.83
					c0,0,27.277-34.272,32.873-52.807c3.147-10.491,12.239-18.884,22.031-22.032c-3.497-0.35-8.394-0.7-17.136-2.099
					C433.646,234.432,425.253,237.58,418.258,236.53z"/>
			</g>
		</g>
	</g>
</g>
<g id="Wiskers_1_">
	<g>
		<path fill="#303030" d="M151.776,355.433c-11.89,0-23.78-3.497-29.726-15.038c-0.35-0.7,0-1.749,0.699-2.448
			c0.7-0.35,1.749,0,2.448,0.7c13.289,25.879,61.899,5.595,62.249,5.595c1.049-0.35,1.749,0,2.448,1.049
			c0.35,1.049,0,1.749-1.049,2.448C187.447,348.089,169.262,355.433,151.776,355.433z"/>
		<path fill="#303030" d="M137.088,381.312c-7.693,0-15.038-2.448-19.934-9.093c-0.699-0.699-0.35-1.749,0.35-2.448
			c0.7-0.699,1.749-0.35,2.448,0.35c16.437,21.682,62.948-10.142,63.298-10.142c0.699-0.699,1.749-0.35,2.448,0.35
			c0.7,0.7,0.35,1.749-0.35,2.448C183.95,363.826,158.071,381.312,137.088,381.312z"/>
	</g>
</g>
<g id="Wiskers">
	<g>
		<path fill="#303030" d="M366.851,391.803c-32.174,0-70.992-23.431-73.091-24.83c-0.699-0.35-1.049-1.749-0.699-2.448
			c0.35-0.7,1.749-1.049,2.448-0.7c0.699,0.35,63.647,38.119,93.373,18.535c0.7-0.7,1.749-0.35,2.448,0.35s0.35,1.749-0.35,2.448
			C383.986,390.055,375.593,391.803,366.851,391.803z"/>
		<path fill="#303030" d="M369.998,420.48c-33.573,0-75.189-35.671-77.287-37.42c-0.7-0.699-0.7-1.749-0.35-2.448
			c0.699-0.7,1.749-0.7,2.448-0.35c0.7,0.35,56.304,48.261,89.177,33.923c1.049-0.35,1.748,0,2.448,1.049
			c0.35,1.049,0,1.748-1.05,2.448C380.839,419.431,375.593,420.48,369.998,420.48z"/>
	</g>
</g>
</svg>
