<?xml version="1.0" encoding="utf-8"?>
<!-- Generator: Adobe Illustrator 16.0.4, SVG Export Plug-In . SVG Version: 6.00 Build 0)  -->
<!DOCTYPE svg PUBLIC "-//W3C//DTD SVG 1.1//EN" "http://www.w3.org/Graphics/SVG/1.1/DTD/svg11.dtd">
<svg version="1.1" id="Layer_1" xmlns="http://www.w3.org/2000/svg" xmlns:xlink="http://www.w3.org/1999/xlink" x="0px" y="0px"
	 width="465.374px" height="163.818px" viewBox="0 0 465.374 163.818" enable-background="new 0 0 465.374 163.818"
	 xml:space="preserve">
<polygon fill="#164B78" points="148.53,92.291 148.53,67.656 139.025,67.656 139.025,92.291 127.037,92.291 127.037,33.183 
	139.025,33.183 139.025,56.825 148.53,56.825 148.53,33.183 160.518,33.183 160.518,92.291 "/>
<path fill="#0B94D2" d="M160.393,33.308v58.858h-11.738V67.532H138.9v24.634h-11.738V33.308H138.9V56.95h9.755V33.308H160.393z
	 M160.643,33.058h-0.25h-11.738h-0.25v0.25V56.7h-9.255V33.308v-0.25h-0.25h-11.738h-0.25v0.25v58.858v0.25h0.25H138.9h0.25v-0.25
	V67.782h9.255v24.384v0.25h0.25h11.738h0.25v-0.25V33.308V33.058z"/>
<path fill="#164B78" d="M194.932,92.291l-1.902-9.175h-13.353l-1.903,9.175h-12.496l15.192-59.108h11.766l15.194,59.108H194.932z
	 M190.746,72.284l-4.393-21.086l-4.393,21.086H190.746z"/>
<path fill="#0B94D2" d="M192.14,33.308l15.128,58.857h-12.235l-1.901-9.176h-13.558l-1.901,9.176h-12.234l15.127-58.857H192.14z
	 M181.808,72.409h9.092l-4.546-21.824L181.808,72.409 M192.333,33.058h-0.193h-11.574h-0.194l-0.048,0.188l-15.127,58.858
	l-0.08,0.312h0.322h12.234h0.203l0.042-0.198l1.86-8.978h13.15l1.86,8.978l0.042,0.198h0.203h12.235h0.322l-0.08-0.312
	l-15.128-58.858L192.333,33.058z M182.114,72.159l4.239-20.348l4.239,20.348H182.114z"/>
<path fill="#164B78" d="M212.189,92.292V33.182h16.74c11.521,0,16.657,5.801,16.657,18.808c0,13.178-5.137,19.055-16.657,19.055
	h-4.752v21.246H212.189z M229.012,60.214c4.23,0,4.586-4.203,4.586-8.142c0-3.899-0.355-8.059-4.586-8.059h-4.835v16.201H229.012z"
	/>
<path fill="#0B94D2" d="M228.929,33.308c12.73,0,16.533,7.191,16.533,18.682c0,11.573-3.803,18.931-16.533,18.931h-4.878v21.245
	h-11.738V33.308H228.929 M224.051,60.339h4.96c4.464,0,4.712-4.546,4.712-8.266c0-3.72-0.248-8.184-4.712-8.184h-4.96V60.339
	 M228.929,33.058h-16.616h-0.25v0.25v58.857v0.25h0.25h11.738h0.25v-0.25V71.171h4.628c11.607,0,16.783-5.916,16.783-19.181
	C245.712,38.897,240.537,33.058,228.929,33.058 M224.301,44.139h4.71c4.117,0,4.462,3.919,4.462,7.934
	c0,3.878-0.345,8.016-4.462,8.016h-4.71V44.139z"/>
<path fill="#164B78" d="M252.451,92.292V33.182h16.739c11.521,0,16.658,5.801,16.658,18.808c0,13.178-5.137,19.055-16.658,19.055
	h-4.752v21.246H252.451z M269.273,60.214c4.232,0,4.587-4.203,4.587-8.142c0-3.899-0.354-8.059-4.587-8.059h-4.835v16.201H269.273z"
	/>
<path fill="#0B94D2" d="M269.191,33.308c12.73,0,16.533,7.191,16.533,18.682c0,11.573-3.803,18.931-16.533,18.931h-4.878v21.245
	h-11.738V33.308H269.191 M264.313,60.339h4.96c4.464,0,4.712-4.546,4.712-8.266c0-3.72-0.248-8.184-4.712-8.184h-4.96V60.339
	 M269.191,33.058h-16.616h-0.25v0.25v58.857v0.25h0.25h11.738h0.25v-0.25V71.171h4.628c11.607,0,16.783-5.916,16.783-19.181
	C285.974,38.897,280.798,33.058,269.191,33.058 M264.563,44.139h4.71c4.117,0,4.462,3.919,4.462,7.934
	c0,3.878-0.345,8.016-4.462,8.016h-4.71V44.139z"/>
<polygon fill="#164B78" points="300.069,92.291 300.069,70.011 288.037,33.183 301.204,33.183 306.063,54.083 310.923,33.183 
	324.09,33.183 312.051,70.05 312.057,92.291 "/>
<path fill="#0B94D2" d="M323.918,33.308l-11.985,36.704v22.154h-11.739V70.012l-11.986-36.704h12.896l4.959,21.328l4.96-21.328
	H323.918z M324.264,33.058h-0.346h-12.896h-0.198l-0.045,0.193l-4.717,20.281l-4.716-20.281l-0.046-0.193h-0.197h-12.896h-0.345
	l0.107,0.328l11.974,36.665v22.115v0.25h0.25h11.739h0.25v-0.25V70.051l11.974-36.665L324.264,33.058z"/>
<path fill="#90B3C6" d="M371.051,152.682c0,0.92-64.253,1.666-143.514,1.666c-79.26,0-143.513-0.746-143.513-1.666
	s64.253-1.666,143.513-1.666C306.798,151.016,371.051,151.762,371.051,152.682"/>
<polygon fill="#164B78" points="110.057,152.801 110.057,128.167 100.552,128.167 100.552,152.801 88.564,152.801 88.564,93.694 
	100.552,93.694 100.552,117.335 110.057,117.335 110.057,93.694 122.045,93.694 122.045,152.801 "/>
<path fill="#0B94D2" d="M121.92,93.819v58.857h-11.738v-24.634h-9.755v24.634H88.689V93.819h11.738v23.642h9.755V93.819H121.92z
	 M122.17,93.569h-0.25h-11.738h-0.25v0.25v23.392h-9.255V93.819v-0.25h-0.25H88.689h-0.25v0.25v58.857v0.25h0.25h11.738h0.25v-0.25
	v-24.384h9.255v24.384v0.25h0.25h11.738h0.25v-0.25V93.819V93.569z"/>
<path fill="#164B78" d="M146.475,153.463c-6.966,0-10.434-2.99-12.908-5.914c-4.457-5.318-4.434-15.033-4.414-22.839v-2.925
	c-0.02-7.807-0.043-17.522,4.414-22.839c2.474-2.926,5.942-5.914,12.908-5.914c7.153,0,10.745,3.159,13.074,5.913
	c4.457,5.316,4.433,15.03,4.413,22.836v2.933c0.02,7.804,0.044,17.518-4.413,22.835
	C157.219,150.302,153.628,153.463,146.475,153.463 M146.475,103.864c-1.809,0-3.007,0.713-3.773,2.244
	c-1.37,2.657-1.558,9.809-1.558,17.14c0,7.332,0.188,14.481,1.558,17.137c0.766,1.534,1.964,2.248,3.773,2.248
	c1.869,0,3.194-0.756,3.939-2.246c1.37-2.659,1.558-9.808,1.558-17.139c0-7.33-0.188-14.48-1.558-17.138
	C149.669,104.619,148.344,103.864,146.475,103.864"/>
<path fill="#0B94D2" d="M146.475,93.157c6.613,0,10.252,2.646,12.979,5.869c4.712,5.622,4.381,16.286,4.381,24.222
	c0,7.937,0.331,18.6-4.381,24.221c-2.727,3.225-6.366,5.869-12.979,5.869c-6.613,0-10.085-2.645-12.812-5.869
	c-4.712-5.621-4.383-16.284-4.383-24.221c0-7.936-0.329-18.6,4.383-24.222C136.39,95.802,139.861,93.157,146.475,93.157
	 M146.475,142.756c2.15,0,3.39-0.992,4.051-2.314c1.405-2.729,1.571-10.085,1.571-17.194s-0.166-14.466-1.571-17.195
	c-0.661-1.321-1.901-2.313-4.051-2.313c-2.149,0-3.223,0.992-3.885,2.313c-1.406,2.729-1.57,10.086-1.57,17.195
	s0.164,14.466,1.57,17.194C143.251,141.764,144.326,142.756,146.475,142.756 M146.475,92.907c-7.016,0-10.511,3.012-13.003,5.958
	c-4.487,5.353-4.463,15.093-4.444,22.919l0.002,1.464l-0.002,1.464c-0.019,7.826-0.043,17.566,4.443,22.918
	c2.493,2.947,5.988,5.958,13.004,5.958c7.205,0,10.823-3.184,13.17-5.957c4.486-5.352,4.462-15.091,4.443-22.915l-0.003-1.468
	l0.003-1.468c0.019-7.825,0.043-17.563-4.442-22.914C157.297,96.09,153.68,92.907,146.475,92.907 M146.475,142.506
	c-1.779,0-2.908-0.671-3.661-2.176c-1.357-2.635-1.544-9.767-1.544-17.083s0.187-14.449,1.543-17.08
	c0.754-1.508,1.883-2.179,3.662-2.179c1.818,0,3.106,0.731,3.828,2.176c1.357,2.636,1.544,9.769,1.544,17.083
	c0,7.315-0.187,14.447-1.543,17.08C149.581,141.775,148.292,142.506,146.475,142.506"/>
<polygon fill="#164B78" points="171.07,152.801 171.07,93.694 183.058,93.694 183.058,141.97 198.435,141.97 198.435,152.801 "/>
<path fill="#0B94D2" d="M182.933,93.819v48.276h15.376v10.581h-27.114V93.819H182.933z M183.183,93.569h-0.25h-11.738h-0.25v0.25
	v58.857v0.25h0.25h27.114h0.25v-0.25v-10.581v-0.25h-0.25h-15.126V93.819V93.569z"/>
<rect x="204.717" y="93.694" fill="#164B78" width="11.988" height="59.107"/>
<path fill="#0B94D2" d="M216.581,152.676h-11.738V93.819h11.738V152.676z M216.831,93.569h-0.25h-11.738h-0.25v0.25v58.857v0.25
	h0.25h11.738h0.25v-0.25V93.819V93.569z"/>
<path fill="#164B78" d="M225.551,152.802V93.693h16.74c7.107,0,10.677,3.071,12.99,5.748c4.457,5.16,4.434,14.71,4.413,22.382v2.85
	c0.021,7.672,0.044,17.221-4.413,22.381c-2.313,2.677-5.883,5.749-12.99,5.749H225.551z M242.043,141.97
	c1.922,0,3.478-0.909,4.269-2.493c1.394-2.703,1.394-9.933,1.394-16.312c0-6.609,0-13.444-1.393-16.146
	c-0.792-1.586-2.349-2.495-4.27-2.495h-4.504v37.446H242.043z"/>
<path fill="#0B94D2" d="M242.292,93.819c6.612,0,10.25,2.645,12.895,5.704c4.712,5.455,4.381,16.037,4.381,23.725
	c0,7.688,0.331,18.27-4.381,23.725c-2.645,3.06-6.282,5.704-12.895,5.704h-16.616V93.819H242.292 M237.415,142.095h4.629
	c2.149,0,3.638-1.074,4.381-2.562c1.406-2.729,1.406-9.837,1.406-16.368c0-6.53,0-13.474-1.406-16.203
	c-0.743-1.486-2.231-2.562-4.381-2.562h-4.629V142.095 M242.292,93.569h-16.616h-0.25v0.25v58.857v0.25h0.25h16.616
	c7.159,0,10.753-3.095,13.085-5.791c4.488-5.195,4.463-14.771,4.443-22.466l-0.003-1.422l0.003-1.423
	c0.02-7.694,0.045-17.27-4.443-22.465C253.045,96.663,249.452,93.569,242.292,93.569 M237.665,104.65h4.379
	c1.872,0,3.387,0.884,4.158,2.424c1.379,2.677,1.379,9.496,1.379,16.091c0,6.365,0,13.579-1.378,16.254
	c-0.772,1.543-2.287,2.427-4.159,2.427h-4.379V104.65z"/>
<path fill="#164B78" d="M291.14,152.801l-1.901-9.175h-13.354l-1.902,9.175h-12.495l15.191-59.107h11.766l15.193,59.107H291.14z
	 M286.955,132.794l-4.394-21.086l-4.393,21.086H286.955z"/>
<path fill="#0B94D2" d="M288.348,93.819l15.128,58.857h-12.235l-1.9-9.176h-13.559l-1.9,9.176h-12.234l15.127-58.857H288.348z
	 M278.015,132.919h9.092l-4.546-21.824L278.015,132.919 M288.542,93.569h-0.193h-11.574h-0.193l-0.049,0.188l-15.127,58.858
	l-0.08,0.312h0.322h12.234h0.203l0.042-0.198l1.859-8.978h13.15l1.86,8.978l0.041,0.198h0.203h12.235h0.322l-0.08-0.312
	L288.59,93.756L288.542,93.569z M278.322,132.669l4.239-20.348l4.239,20.348H278.322z"/>
<polygon fill="#164B78" points="310.617,152.801 310.617,130.522 298.583,93.694 311.75,93.694 316.61,114.593 321.47,93.694 
	334.638,93.694 322.599,130.561 322.605,152.801 "/>
<path fill="#0B94D2" d="M334.466,93.819l-11.986,36.703v22.154h-11.738v-22.154l-11.986-36.703h12.896l4.959,21.327l4.961-21.327
	H334.466z M334.811,93.569h-0.345h-12.896h-0.198l-0.045,0.192l-4.718,20.281l-4.716-20.281l-0.045-0.192h-0.198h-12.896h-0.345
	l0.106,0.327l11.975,36.665v22.115v0.25h0.25h11.738h0.25v-0.25v-22.115l11.975-36.665L334.811,93.569z"/>
<path fill="#164B78" d="M352.244,153.463c-5.55,0-9.982-1.499-12.819-4.336c-2.748-2.747-3.921-6.681-3.921-13.149v-0.125h11.987
	v0.125c0,2.467,0.197,4.124,1.21,5.291c0.553,0.621,1.616,1.363,3.543,1.363c1.732,0,2.884-0.457,3.62-1.439
	c0.783-0.94,1.133-2.446,1.133-4.884c0-5.625-0.893-6.522-5.049-8.234l-7.439-3.058c-5.645-2.353-8.51-5.304-8.51-14.913
	c0-5.604,1.845-10.153,5.335-13.157c2.917-2.488,6.588-3.75,10.91-3.75c5.071,0,8.995,1.263,11.657,3.754
	c3.088,2.849,4.588,7.34,4.588,13.731v0.125H356.5v-0.125c0-2.02,0-3.926-0.966-5.215c-0.714-0.982-1.76-1.438-3.29-1.438
	c-1.449,0-2.556,0.511-3.287,1.52c-0.697,0.929-0.969,2.09-0.969,4.143c0,3.69,0.668,4.713,3.973,6.084l7.356,2.975
	c7.681,3.158,9.668,6.684,9.668,17.146c0,5.65-0.653,10.049-3.842,13.15C362.247,151.853,357.544,153.463,352.244,153.463"/>
<path fill="#0B94D2" d="M352.244,93.323c5.208,0,9.01,1.322,11.572,3.72c3.225,2.976,4.548,7.688,4.548,13.64h-11.739
	c0-2.066,0-3.968-0.991-5.291c-0.661-0.909-1.654-1.487-3.39-1.487c-1.653,0-2.729,0.662-3.39,1.57
	c-0.744,0.992-0.992,2.232-0.992,4.217c0,3.72,0.661,4.794,4.051,6.199l7.356,2.977c7.441,3.058,9.591,6.364,9.591,17.028
	c0,5.952-0.744,10.085-3.804,13.062c-2.645,2.562-7.108,4.381-12.812,4.381c-5.786,0-10.085-1.653-12.73-4.298
	c-2.894-2.894-3.886-7.027-3.886-13.062h11.738c0,2.397,0.166,4.134,1.24,5.373c0.661,0.744,1.819,1.405,3.638,1.405
	s2.976-0.496,3.72-1.488c0.827-0.991,1.158-2.562,1.158-4.96c0-5.621-0.91-6.612-5.126-8.349l-7.44-3.059
	c-5.952-2.48-8.432-5.621-8.432-14.798c0-5.456,1.736-10.002,5.29-13.061C344.225,94.645,347.779,93.323,352.244,93.323
	 M352.244,93.073c-4.353,0-8.052,1.271-10.992,3.778c-3.52,3.029-5.378,7.611-5.378,13.252c0,9.681,2.891,12.655,8.586,15.028
	l7.44,3.061c4.093,1.684,4.972,2.568,4.972,8.116c0,2.408-0.34,3.889-1.101,4.801c-0.718,0.956-1.837,1.397-3.527,1.397
	c-1.882,0-2.915-0.718-3.45-1.321c-0.99-1.142-1.178-2.711-1.178-5.207v-0.25h-0.25h-11.738h-0.25v0.25
	c0,6.504,1.184,10.464,3.959,13.238c2.859,2.86,7.323,4.371,12.907,4.371c5.333,0,10.066-1.622,12.986-4.452
	c3.221-3.132,3.88-7.558,3.88-13.24c0-10.528-2.004-14.077-9.746-17.261l-7.357-2.976c-3.275-1.358-3.895-2.307-3.895-5.968
	c0-2.022,0.265-3.162,0.942-4.066c0.71-0.978,1.783-1.471,3.189-1.471c1.486,0,2.5,0.439,3.188,1.385
	c0.943,1.259,0.943,3.146,0.943,5.144v0.25h0.25h11.739h0.25v-0.25c0-6.428-1.514-10.95-4.628-13.823
	C361.3,94.346,357.349,93.073,352.244,93.073"/>
<path fill="#E6E6E5" d="M26.19,113.226c-11.125-2.43-19.194-9.819-19.539-17.308c-0.422,0.819-0.745,1.685-0.945,2.599
	c-1.824,8.352,6.442,19.076,18.934,21.805C37.13,123.049,36.051,115.379,26.19,113.226"/>
<path fill="#90B3C6" d="M73.286,152.572c0,1.84-16.406,3.332-36.643,3.332S0,154.412,0,152.572s16.406-3.332,36.643-3.332
	S73.286,150.732,73.286,152.572"/>
<path fill="#F3F3F3" d="M76.471,93.463c13.767,0.6,16.552,0.888,25.185-1.271c8.402-2.101,7.234-10.884-1.725-10.339
	c-9.135,0.556-10.819-0.979-15.304-1.042"/>
<path fill="#F3F3F3" d="M66.804,128.635c-11.831,10.548-49.2-6.993-44.05-20.501c2.955-7.75,12.027-30.419,16.24-45.372
	c2.102-7.459,15.8-7.821,28.493-3.977c11.661,3.532,20.92,12.922,19.248,19.594C82.739,94.328,74.99,121.337,66.804,128.635"/>
<path fill="#F3F3F3" d="M68.982,125.103c-3.029,8.739-16.036,12.166-29.05,7.654c-13.015-4.512-20.492-15.151-17.462-23.891
	c3.029-8.739,15.417-12.269,28.432-7.757S72.012,116.364,68.982,125.103"/>
<path fill="#F3F3F3" d="M36.7,82.334c-13.239,3.009-9.896,8.489-9.277,15.396c0.64,7.138-6.773,6.352-9.212-0.387
	c-1.583-4.375-3.536-8.208-1.994-11.75c2.595-5.963,15.465-11.736,21.426-12.113c0,0,4.291-0.547,4.291,2.891
	C41.934,79.808,42.027,81.124,36.7,82.334"/>
<path fill="#C24F27" d="M72.155,93.864c0.261,3.79-2.6,7.073-6.39,7.333c-3.79,0.262-7.073-2.6-7.333-6.39
	c-0.261-3.789,2.6-7.073,6.39-7.334C68.612,87.213,71.895,90.075,72.155,93.864"/>
<path fill="#FFFFFF" d="M70.499,94.884c-0.114-0.248-1.428-1.679-1.652-1.805l-0.012-0.007l-0.036,0.003
	c-0.011,0.014-0.024,0.03,0.205,0.29c0.253,0.286,0.25,0.443,0.227,0.514c-0.022,0.059-0.076,0.098-0.155,0.111
	c-0.237,0.041-0.664-0.151-1.018-0.594c-0.567-0.702-1.713-2.747-1.951-3.747c-0.07-0.298-0.029-0.508,0.108-0.548l0.212-0.019
	l0.025-0.012l-0.001-0.053c-0.018-0.028-0.069-0.055-0.262-0.091c-0.021-0.004-0.514-0.093-0.874,0.24
	c-0.318,0.292-0.442,0.81-0.367,1.539c0.154,1.512,0.103,1.728-0.5,2.104c-0.141,0.087-0.172,0.214-0.172,0.305
	c0,0.181,0.116,0.362,0.229,0.433c0.201,0.127,0.364,0.104,0.465,0.063c0.136-0.057,0.243-0.182,0.278-0.326
	c0.106-0.446,0.043-0.878-0.017-1.295l-0.061-0.501c-0.013-0.189,0.047-0.346,0.174-0.452c0.184-0.153,0.462-0.173,0.643-0.128
	c0.199,0.052,0.386,0.45,0.523,0.74l0.092,0.191l0.57,1.218c0.418,0.946,0.592,1.282,1.441,1.714l0.232,0.124
	c1.068,0.549,1.182,0.515,1.388,0.47C70.608,95.285,70.541,94.975,70.499,94.884"/>
<path fill="#FFFFFF" d="M68.283,95.315c-1.382-0.632-1.543-0.784-1.564-1.495c-0.003-0.166-0.098-0.257-0.176-0.302
	c-0.156-0.092-0.371-0.083-0.489-0.021c-0.209,0.109-0.273,0.262-0.288,0.37c-0.021,0.146,0.033,0.301,0.14,0.404
	c0.332,0.316,0.736,0.48,1.128,0.641l0.462,0.2c0.171,0.083,0.274,0.213,0.302,0.378c0.039,0.235-0.084,0.485-0.215,0.619
	c-0.145,0.145-0.583,0.105-0.904,0.077l-0.21-0.017l-1.34-0.123c-1.027-0.117-1.405-0.137-2.206,0.377l-0.224,0.137
	c-1.013,0.646-1.041,0.762-1.106,0.962c-0.118,0.365,0.182,0.464,0.282,0.474c0.271,0.026,2.171-0.385,2.392-0.514l0.011-0.007
	l0.016-0.032c-0.006-0.018-0.013-0.036-0.354,0.029c-0.374,0.074-0.51-0.009-0.556-0.063c-0.04-0.049-0.047-0.114-0.019-0.19
	c0.085-0.225,0.465-0.496,1.027-0.579c0.893-0.133,3.234-0.091,4.218,0.209c0.293,0.091,0.454,0.232,0.418,0.371l-0.09,0.192
	l-0.002,0.026l0.045,0.026c0.034-0.001,0.082-0.032,0.211-0.18c0.015-0.017,0.34-0.397,0.234-0.876
	C69.335,95.987,68.951,95.62,68.283,95.315"/>
<path fill="#FFFFFF" d="M62.852,95.864c1.212-0.917,1.424-0.984,2.059-0.664c0.148,0.074,0.272,0.034,0.349-0.013
	c0.155-0.093,0.25-0.287,0.252-0.42c0.003-0.237-0.1-0.364-0.189-0.43c-0.118-0.088-0.28-0.114-0.423-0.069
	c-0.435,0.142-0.772,0.419-1.099,0.688l-0.396,0.312c-0.153,0.109-0.318,0.14-0.475,0.086c-0.227-0.078-0.39-0.305-0.443-0.484
	c-0.059-0.195,0.184-0.563,0.362-0.83l0.114-0.178l0.746-1.119c0.59-0.85,0.787-1.174,0.716-2.122l-0.014-0.263
	c-0.087-1.197-0.175-1.277-0.321-1.43c-0.265-0.277-0.494-0.061-0.55,0.023c-0.152,0.226-0.693,2.093-0.685,2.349v0.014l0.021,0.029
	c0.018,0.002,0.039,0.005,0.142-0.326c0.114-0.365,0.25-0.445,0.32-0.459c0.063-0.013,0.124,0.013,0.177,0.073
	c0.157,0.182,0.215,0.645,0.021,1.179c-0.307,0.85-1.457,2.89-2.189,3.613c-0.219,0.214-0.419,0.288-0.525,0.19
	c0-0.001-0.125-0.172-0.125-0.172l-0.023-0.013l-0.045,0.027c-0.015,0.029-0.011,0.088,0.058,0.271
	c0.008,0.021,0.188,0.487,0.66,0.623C61.762,96.47,62.268,96.306,62.852,95.864"/>
<rect x="18.371" y="119.847" transform="matrix(-0.9468 -0.3219 0.3219 -0.9468 10.925 270.9879)" fill="#F3F3F3" width="18.987" height="29.488"/>
<path fill="#FFFFFF" d="M32.173,152.572c0.932-2.742,1.504-5.498-7.245-8.944c-5.162-2.032-11.445-0.496-12.378,2.245"/>
<path fill="#C5C4C4" d="M25.301,150.36c0.578-1.7,0.537-3.252-0.09-3.466c-0.629-0.214-1.607,0.991-2.185,2.691"/>
<path fill="#C5C4C4" d="M20.718,148.555c0.578-1.7,0.537-3.252-0.09-3.465c-0.628-0.214-1.605,0.991-2.184,2.692"/>
<path fill="#C5C4C4" d="M16.732,147.25c0.578-1.701,0.538-3.251-0.09-3.465c-0.629-0.214-1.605,0.99-2.184,2.691"/>
<rect x="47.481" y="122.899" fill="#F3F3F3" width="18.987" height="29.493"/>
<path fill="#FFFFFF" d="M67.146,152.391c0-2.896-4.496-5.243-10.043-5.243c-5.547,0-10.043,2.348-10.043,5.243"/>
<path fill="#C5C4C4" d="M64.264,152.391c0-1.796-0.538-3.252-1.201-3.252s-1.201,1.456-1.201,3.252"/>
<path fill="#C5C4C4" d="M58.749,152.391c0-1.796-0.538-3.252-1.201-3.252s-1.201,1.456-1.201,3.252"/>
<path fill="#C5C4C4" d="M53.315,152.391c0-1.796-0.538-3.252-1.201-3.252s-1.201,1.456-1.201,3.252"/>
<defs>
	<filter id="Adobe_OpacityMaskFilter" filterUnits="userSpaceOnUse" x="28.782" y="127.799" width="32.724" height="6.714">
		<feColorMatrix  type="matrix" values="1 0 0 0 0  0 1 0 0 0  0 0 1 0 0  0 0 0 1 0"/>
	</filter>
</defs>
<mask maskUnits="userSpaceOnUse" x="28.782" y="127.799" width="32.724" height="6.714" id="SVGID_1_">
	<g filter="url(#Adobe_OpacityMaskFilter)">
		<g>
			<defs>
				<rect id="SVGID_2_" x="28.782" y="127.799" width="32.724" height="6.713"/>
			</defs>
			<clipPath id="SVGID_3_">
				<use xlink:href="#SVGID_2_"  overflow="visible"/>
			</clipPath>
			<rect x="28.231" y="127.536" clip-path="url(#SVGID_3_)" width="33.275" height="8.007"/>
			<g enable-background="new    ">
				<g>
					<defs>
						<rect id="SVGID_4_" x="28.231" y="127.536" width="33.275" height="8.007"/>
					</defs>
					<clipPath id="SVGID_5_" clip-path="url(#SVGID_3_)">
						<use xlink:href="#SVGID_4_"  overflow="visible"/>
					</clipPath>
					<path clip-path="url(#SVGID_5_)" fill="#FFFFFF" d="M67.695,126.014c-3.478,8.569-16.644,11.318-29.408,6.139
						c-12.763-5.179-20.29-16.326-16.812-24.896c3.477-8.57,16.643-11.319,29.407-6.14S71.174,117.444,67.695,126.014"/>
				</g>
			</g>
		</g>
	</g>
</mask>
<g opacity="0.1" mask="url(#SVGID_1_)">
	<g>
		<defs>
			<rect id="SVGID_6_" x="28.782" y="127.799" width="32.724" height="6.713"/>
		</defs>
		<clipPath id="SVGID_7_">
			<use xlink:href="#SVGID_6_"  overflow="visible"/>
		</clipPath>
		<path clip-path="url(#SVGID_7_)" d="M28.944,128.383c0,0-0.713-0.848,0.854-0.499c1.567,0.347,0.651,0.812,5.875,3.25
			c5.223,2.437,12.216,2.303,14.125,2.062c3.007-0.38,6.832-0.634,11.708-2.723c0,0-0.214,5.07-17.626,3.851
			C38.656,133.958,28.944,128.383,28.944,128.383"/>
	</g>
</g>
<g opacity="0.1">
	<g>
		<defs>
			<rect id="SVGID_8_" x="87.669" y="84.757" width="12.35" height="9.117"/>
		</defs>
		<clipPath id="SVGID_9_">
			<use xlink:href="#SVGID_8_"  overflow="visible"/>
		</clipPath>
		<path clip-path="url(#SVGID_9_)" d="M100.019,84.757c-4.414,0.575-11.681-0.611-12.277,4.63c-0.407,3.578,0.919,4.129,2.813,4.487
			c1.712-0.021,5.67-0.051,8.377-1.042c-4.571-0.112-10.282,1.058-9.194-3.581C90.495,86.023,93.068,85.89,100.019,84.757"/>
	</g>
</g>
<path fill="#C24F27" d="M56.312,87.107c8.828,3.06,21.274,0.887,29.314-2.341l1.075-4.503c-7.893,4.216-19.963,6.235-29.083,3.074
	c-9.648-3.345-16.031-8.92-19.423-17.762l-1.552,5.334C40.893,78.98,47.013,83.882,56.312,87.107"/>
<g opacity="0.07">
	<g>
		<defs>
			<rect id="SVGID_10_" x="23.753" y="56.18" width="63.207" height="46.572"/>
		</defs>
		<clipPath id="SVGID_11_">
			<use xlink:href="#SVGID_10_"  overflow="visible"/>
		</clipPath>
		<path clip-path="url(#SVGID_11_)" d="M68.354,59.062c-19.666-6.298-26.983-0.766-28.899,2.35
			c-0.737,1.197-2.974,9.253-3.994,12.348c-1.264,0.342-2.256,0.925-3.788,1.728c-6.844,3.583,2.171,5.771,0.968,6.083
			c-5.593,2.594-9.263,3.188-7.846,10.581c0.425,2.22,1.175,4.762,0.916,6.442c-0.645,4.189-2.446,4.141-1.833,4.155
			c3.224,0.077,4.004-1.804,3.558-5.415c-0.85-6.887-3.266-11.532,7.691-14.702c4.171-1.373,7.984,7.593,16.433,9.958
			c8.706,2.438,29.363,4.235,32.52-3.016c0.138-0.316,0.522-1.227,1.014-2.676c0.498-1.466,1.072-3.497,1.473-6.076
			c0.15-0.965,0.276-2.006,0.364-3.124C87.689,68.142,73.393,60.676,68.354,59.062"/>
	</g>
</g>
<path fill="#90B3C6" d="M445.805,154.026c0,4.736-23.878,9.792-44.114,9.792c-20.238,0-32.723-1.984-32.723-6.721
	s67.126-26.06,56.435-8.878C416.832,161.993,445.805,149.289,445.805,154.026"/>
<path fill="none" stroke="#D9D9D8" stroke-width="9" stroke-linecap="round" stroke-miterlimit="10" d="M412.274,145.692
	c3.189-2.392,9.968-5.582,13.556-1.992c3.588,3.588,20.334,1.195,12.359-15.151"/>
<path fill="#DCDCDB" d="M401.875,121.328c-7.045,5.683-28.112,2.18-35.272-0.644c-7.16-2.822-4.073-14.536,3.087-11.713
	s19.007,10.614,25.865,6.295c0,0,3.722-2.95,6.321-0.736S403.903,119.692,401.875,121.328"/>
<path fill="#EBEAEA" d="M378.803,152.584c0,0,38.788,7.001,44.58,1.209c6.205-6.205-5.991-44.617-5.991-44.617
	s0.776-7.364-16.387-7.364c-17.164,0-17.382,7.364-17.382,7.364L378.803,152.584z"/>
<path fill="#EBEAEA" d="M378.803,152.584c0,3.083,9.718,5.58,21.704,5.58c11.987,0,21.704-2.497,21.704-5.58
	c0-3.082-9.717-5.581-21.704-5.581C388.521,147.003,378.803,149.502,378.803,152.584"/>
<defs>
	<filter id="Adobe_OpacityMaskFilter_1_" filterUnits="userSpaceOnUse" x="380.914" y="111.845" width="24.6" height="46.014">
		<feColorMatrix  type="matrix" values="1 0 0 0 0  0 1 0 0 0  0 0 1 0 0  0 0 0 1 0"/>
	</filter>
</defs>
<mask maskUnits="userSpaceOnUse" x="380.914" y="111.845" width="24.6" height="46.014" id="SVGID_12_">
	<g filter="url(#Adobe_OpacityMaskFilter_1_)">
		<g>
			<defs>
				<rect id="SVGID_13_" x="380.914" y="111.845" width="24.6" height="46.014"/>
			</defs>
			<clipPath id="SVGID_14_">
				<use xlink:href="#SVGID_13_"  overflow="visible"/>
			</clipPath>
			<rect x="380.914" y="111.845" clip-path="url(#SVGID_14_)" width="24.601" height="52.289"/>
			<g enable-background="new    ">
				<g>
					<defs>
						<rect id="SVGID_15_" x="380.914" y="111.845" width="24.6" height="52.289"/>
					</defs>
					<clipPath id="SVGID_16_" clip-path="url(#SVGID_14_)">
						<use xlink:href="#SVGID_15_"  overflow="visible"/>
					</clipPath>
					<polygon clip-path="url(#SVGID_16_)" fill="#EBEAEA" points="372.029,152.584 415.437,152.584 410.617,109.176 
						376.848,109.176 					"/>
					<path clip-path="url(#SVGID_16_)" fill="#EBEAEA" d="M372.029,152.584c0,3.083,9.717,5.58,21.704,5.58
						c11.986,0,21.704-2.497,21.704-5.58c0-3.082-9.718-5.581-21.704-5.581C381.746,147.003,372.029,149.502,372.029,152.584"/>
				</g>
			</g>
		</g>
	</g>
</mask>
<g mask="url(#SVGID_12_)">
	<g>
		<defs>
			<rect id="SVGID_17_" x="380.914" y="111.845" width="24.6" height="46.014"/>
		</defs>
		<clipPath id="SVGID_18_">
			<use xlink:href="#SVGID_17_"  overflow="visible"/>
		</clipPath>
		<path clip-path="url(#SVGID_18_)" fill="#FFFFFF" d="M380.914,149.982c0,14.152,4.084,4.916,10.877,4.916
			c6.792,0,13.722,9.236,13.722-4.916c0-14.151-5.507-38.137-12.299-38.137C386.42,111.845,380.914,135.831,380.914,149.982"/>
	</g>
</g>
<path fill="#FFFFFF" d="M389.905,132.998c0,0-0.822,3.002-3.554,3.097c0,0,3.361,1.113,4.876-2.271"/>
<path fill="#FFFFFF" d="M387.706,117.742c0,0-1.942,2.433-4.489,1.44c0,0,2.647,2.35,5.378-0.159"/>
<path fill="#FFFFFF" d="M386.695,120.004c0,0-2.172,3.025-5.141,1.693c0,0,3.125,3.056,6.204-0.044"/>
<path fill="#FFFFFF" d="M399.419,119.572c0,0,2.848,4.506,7.368,3.296c0,0-4.947,3.503-9.121-1.282"/>
<path fill="#FFFFFF" d="M401.583,122.756c0,0,1.782,5.024,6.459,4.844c0,0-5.6,2.322-8.614-3.268"/>
<path fill="#D9D9D8" d="M418.048,115.031c4.149,5.562,0.688,16.677-1.873,18.49c-8.115,5.743-14.161-4.426-9.832-7.026
	c2.688-1.616,10.26-4.328,6.923-9.214"/>
<path fill="#DEDEDE" d="M399.356,50.314c0,0-18.172-13.494-23.06-12.068c-4.89,1.427-1.878,24.251-0.876,29.858"/>
<path fill="#C2C2C1" d="M396.321,51.227c0,0-14.213-10.555-18.037-9.439c-3.823,1.115-1.468,18.968-0.685,23.355"/>
<path fill="#EBEAEA" d="M363.057,77.154c-2.785,18.045,10.888,35.133,30.54,38.167c19.653,3.034,37.845-9.134,40.63-27.178
	c2.787-18.045-10.887-35.133-30.54-38.167C384.035,46.941,365.843,59.109,363.057,77.154"/>
<path fill="#CCCCCC" d="M394.987,77.953c-0.4,2.592,1.643,3.288,4.235,3.688c2.591,0.401,4.749,0.353,5.148-2.239
	c0.4-2.591-1.376-5.016-3.967-5.416C397.812,73.585,395.387,75.362,394.987,77.953"/>
<path d="M375.385,75.423c-0.199,1.288,1.006,0.408,2.294,0.607c1.287,0.198,2.171,1.401,2.37,0.113
	c0.198-1.288-0.686-2.493-1.972-2.691C376.79,73.253,375.584,74.135,375.385,75.423"/>
<path d="M396.664,78.709c-0.198,1.288,1.007,0.408,2.294,0.607c1.287,0.198,2.172,1.401,2.37,0.113
	c0.198-1.288-0.685-2.493-1.972-2.691C398.068,76.539,396.863,77.421,396.664,78.709"/>
<path fill="#EBEAEA" d="M366.613,69.726c0,0-2.078,4.645-6.516,4.117c0,0,5.153,2.637,8.446-2.453"/>
<path fill="#EBEAEA" d="M366.223,70.964c0,0-0.774,5.029-5.193,5.694c0,0,5.667,1.18,7.497-4.6"/>
<path fill="#EBEAEA" d="M431.96,79.816c0,0,0.875,7.625,7.496,8.885c0,0-8.61,1.447-11.03-7.369"/>
<path fill="#EBEAEA" d="M431.956,81.774c0,0-1.173,7.585,4.879,10.552c0,0-8.685-0.882-8.688-10.025"/>
<path fill="#EDA8AA" d="M380.397,92.292c-0.725,4.686,1.528,8.923,5.031,9.463c3.502,0.541,6.929-2.819,7.652-7.504l-5.392-4.03
	l-2.058-0.163L380.397,92.292z"/>
<path fill="#EBEAEA" d="M386.824,89.803c-0.476,3.082,1.979,6.019,5.48,6.56c3.503,0.541,6.728-1.519,7.204-4.601"/>
<path fill="none" stroke="#000000" stroke-miterlimit="10" d="M386.824,89.803c-0.476,3.082,1.979,6.019,5.48,6.56
	c3.503,0.541,6.728-1.519,7.204-4.601"/>
<path fill="#EBEAEA" d="M374.082,87.835c-0.476,3.082,1.979,6.019,5.48,6.56c3.503,0.541,6.728-1.519,7.204-4.601"/>
<path fill="none" stroke="#000000" stroke-miterlimit="10" d="M374.082,87.835c-0.476,3.082,1.979,6.019,5.48,6.56
	c3.503,0.541,6.728-1.519,7.204-4.601"/>
<line fill="#FFFFFF" x1="387.402" y1="85.504" x2="386.735" y2="89.823"/>
<line fill="none" stroke="#000000" stroke-miterlimit="10" x1="387.402" y1="85.504" x2="386.735" y2="89.823"/>
<path d="M384.958,84.627c-0.228,1.472,0.782,2.849,2.253,3.075c1.472,0.229,2.849-0.78,3.076-2.253
	c0.228-1.471-0.932-1.88-2.402-2.106C386.414,83.116,385.185,83.156,384.958,84.627"/>
<path fill="#DEDEDE" d="M405.809,51.311c0,0,29.22-6.177,35.255-3.063c6.035,3.113-6.246,23.575-9.614,28.508"/>
<path fill="#C2C2C1" d="M409.544,53.269c0,0,22.856-4.831,27.577-2.396c4.72,2.435-4.886,18.441-7.521,22.3"/>
<defs>
	<filter id="Adobe_OpacityMaskFilter_2_" filterUnits="userSpaceOnUse" x="414.536" y="66.025" width="39.908" height="45.861">
		<feColorMatrix  type="matrix" values="1 0 0 0 0  0 1 0 0 0  0 0 1 0 0  0 0 0 1 0"/>
	</filter>
</defs>
<mask maskUnits="userSpaceOnUse" x="414.536" y="66.025" width="39.908" height="45.861" id="SVGID_19_">
	<g filter="url(#Adobe_OpacityMaskFilter_2_)">
		<g>
			<defs>
				<rect id="SVGID_20_" x="414.536" y="66.025" width="39.907" height="45.861"/>
			</defs>
			<clipPath id="SVGID_21_">
				<use xlink:href="#SVGID_20_"  overflow="visible"/>
			</clipPath>
			<rect x="412.506" y="63.78" clip-path="url(#SVGID_21_)" width="42.478" height="48.383"/>
			<g enable-background="new    ">
				<g>
					<defs>
						<rect id="SVGID_22_" x="412.506" y="63.78" width="42.477" height="48.383"/>
					</defs>
					<clipPath id="SVGID_23_" clip-path="url(#SVGID_21_)">
						<use xlink:href="#SVGID_22_"  overflow="visible"/>
					</clipPath>
					<path clip-path="url(#SVGID_23_)" fill="#FFFFFF" d="M363.057,77.154c-2.786,18.045,10.888,35.133,30.541,38.167
						c19.652,3.034,37.844-9.134,40.63-27.178c2.786-18.045-10.887-35.134-30.54-38.167
						C384.035,46.941,365.844,59.11,363.057,77.154"/>
					<path clip-path="url(#SVGID_23_)" fill="#FFFFFF" d="M431.96,79.816c0,0,0.874,7.625,7.495,8.885c0,0-8.608,1.447-11.029-7.37"
						/>
					<path clip-path="url(#SVGID_23_)" fill="#FFFFFF" d="M431.956,81.775c0,0-1.173,7.585,4.879,10.551
						c0,0-8.685-0.882-8.688-10.025"/>
				</g>
			</g>
		</g>
	</g>
</mask>
<g opacity="0.09" mask="url(#SVGID_19_)">
	<g>
		<defs>
			<rect id="SVGID_24_" x="414.536" y="66.025" width="39.907" height="45.861"/>
		</defs>
		<clipPath id="SVGID_25_">
			<use xlink:href="#SVGID_24_"  overflow="visible"/>
		</clipPath>
		<path clip-path="url(#SVGID_25_)" d="M445.137,67.436c-3.376-0.844-25.879-3.657-29.255,2.25c-3.375,5.908,0,22.785,5.626,29.537
			c5.626,6.751,2.25,12.377,9.845,12.658s22.504-10.689,23.067-19.128C454.982,84.314,445.137,67.436,445.137,67.436"/>
	</g>
</g>
<path fill="#FFFFFF" d="M439.411,71.373c0.239,2.595-2.554,11.661-6.29,11.461c-3.737-0.201-5.265-0.061-10.782-5.81
	c-5.517-5.749-9.05-14.583-18.219-18.636c-9.169-4.053-15.368-5.387-17.659-7.624c-2.292-2.238,1.333-6.199,2.099-8.717
	c0.767-2.519,4.021-1.64,11.521,1.025c7.5,2.665,22.355,11.363,29.174,18.444C436.072,68.597,439.269,69.844,439.411,71.373"/>
<defs>
	<filter id="Adobe_OpacityMaskFilter_3_" filterUnits="userSpaceOnUse" x="416.139" y="63.779" width="33.251" height="21.875">
		<feColorMatrix  type="matrix" values="1 0 0 0 0  0 1 0 0 0  0 0 1 0 0  0 0 0 1 0"/>
	</filter>
</defs>
<mask maskUnits="userSpaceOnUse" x="416.139" y="63.779" width="33.251" height="21.875" id="SVGID_26_">
	<g filter="url(#Adobe_OpacityMaskFilter_3_)">
		<g>
			<defs>
				<rect id="SVGID_27_" x="416.139" y="63.78" width="33.251" height="21.874"/>
			</defs>
			<clipPath id="SVGID_28_">
				<use xlink:href="#SVGID_27_"  overflow="visible"/>
			</clipPath>
			<rect x="415.602" y="63.78" clip-path="url(#SVGID_28_)" width="34.881" height="23.91"/>
			<g enable-background="new    ">
				<g>
					<defs>
						<rect id="SVGID_29_" x="415.602" y="63.78" width="34.881" height="23.91"/>
					</defs>
					<clipPath id="SVGID_30_" clip-path="url(#SVGID_28_)">
						<use xlink:href="#SVGID_29_"  overflow="visible"/>
					</clipPath>
					<path clip-path="url(#SVGID_30_)" fill="#FFFFFF" d="M439.411,71.373c0.238,2.595-2.554,11.661-6.291,11.461
						c-3.735-0.2-5.265-0.061-10.78-5.81c-5.518-5.749-9.05-14.583-18.22-18.636c-9.17-4.053-15.367-5.387-17.658-7.624
						c-2.292-2.238,1.334-6.199,2.099-8.718c0.766-2.518,4.021-1.639,11.521,1.026c7.5,2.665,22.355,11.363,29.174,18.444
						C436.072,68.597,439.27,69.844,439.411,71.373"/>
				</g>
			</g>
		</g>
	</g>
</mask>
<g opacity="0.09" mask="url(#SVGID_26_)">
	<g>
		<defs>
			<rect id="SVGID_31_" x="416.139" y="63.78" width="33.251" height="21.874"/>
		</defs>
		<clipPath id="SVGID_32_">
			<use xlink:href="#SVGID_31_"  overflow="visible"/>
		</clipPath>
		<path clip-path="url(#SVGID_32_)" d="M442.605,63.779c0,0-3.094,4.782-11.532,4.501c-8.439-0.282-7.033-1.688-11.252-1.688
			c-4.221,0-3.657,5.063-3.657,5.907c0,0.844,4.501,10.971,5.626,11.533s28.691,3.656,27.566-0.562
			C448.231,79.25,442.605,63.779,442.605,63.779"/>
	</g>
</g>
<path fill="#C24F27" d="M433.975,72.417c0,0,7.478-9.394,9.01-14.431c1.531-5.038,8.043-8.177,11.75-5.344
	c3.706,2.833,5.552-6.677,5.552-6.677s-3.563-6.201-16.695-8.983c-13.134-2.781-26.664-2.987-35.327-0.557
	c-8.663,2.43-15.771,6.983-15.771,6.983s-0.651,1.783,6.679,5.552c7.329,3.769,13.356,6.206,18.023,12.578
	S431.71,72.444,433.975,72.417"/>
<path fill="#FFFFFF" d="M452.048,48.083c-0.565,3.658,1.942,7.081,5.601,7.646c3.657,0.565,7.081-1.943,7.646-5.601
	c0.564-3.658-1.942-7.081-5.601-7.645C456.036,41.918,452.613,44.426,452.048,48.083"/>
<defs>
	<filter id="Adobe_OpacityMaskFilter_4_" filterUnits="userSpaceOnUse" x="420.761" y="51.016" width="30.564" height="28.456">
		<feColorMatrix  type="matrix" values="1 0 0 0 0  0 1 0 0 0  0 0 1 0 0  0 0 0 1 0"/>
	</filter>
</defs>
<mask maskUnits="userSpaceOnUse" x="420.761" y="51.016" width="30.564" height="28.456" id="SVGID_33_">
	<g filter="url(#Adobe_OpacityMaskFilter_4_)">
		<g>
			<defs>
				<rect id="SVGID_34_" x="420.762" y="51.016" width="30.563" height="28.456"/>
			</defs>
			<clipPath id="SVGID_35_">
				<use xlink:href="#SVGID_34_"  overflow="visible"/>
			</clipPath>
			<rect x="420.102" y="50.559" clip-path="url(#SVGID_35_)" width="31.224" height="30.661"/>
			<g enable-background="new    ">
				<g>
					<defs>
						<rect id="SVGID_36_" x="420.102" y="50.559" width="31.224" height="30.661"/>
					</defs>
					<clipPath id="SVGID_37_" clip-path="url(#SVGID_35_)">
						<use xlink:href="#SVGID_36_"  overflow="visible"/>
					</clipPath>
					<path clip-path="url(#SVGID_37_)" fill="#FFFFFF" d="M433.975,72.417c0,0,7.479-9.394,9.01-14.432
						c1.531-5.037,8.043-8.176,11.75-5.343c3.706,2.833,5.552-6.677,5.552-6.677s-3.563-6.201-16.696-8.983
						c-13.133-2.781-26.663-2.986-35.326-0.557c-8.663,2.429-15.771,6.983-15.771,6.983s-0.652,1.783,6.677,5.552
						c7.33,3.769,13.357,6.207,18.024,12.578C421.862,67.911,431.71,72.444,433.975,72.417"/>
				</g>
			</g>
		</g>
	</g>
</mask>
<g opacity="0.09" mask="url(#SVGID_33_)">
	<g>
		<defs>
			<rect id="SVGID_38_" x="420.762" y="51.016" width="30.563" height="28.456"/>
		</defs>
		<clipPath id="SVGID_39_">
			<use xlink:href="#SVGID_38_"  overflow="visible"/>
		</clipPath>
		<path clip-path="url(#SVGID_39_)" d="M451.326,51.965c-1.406,0-1.688,0.281-7.032-0.563c-5.345-0.843-7.595,0-9.564-0.281
			c-1.97-0.281-4.22,1.407-6.188,3.376c-1.969,1.969-3.376,3.375-4.782,5.063s-3.656,7.595-2.812,8.72s14.064,12.94,17.439,10.971
			c3.376-1.969,12.377-11.252,12.097-13.502C450.201,63.498,451.326,51.965,451.326,51.965"/>
	</g>
</g>
<path fill="#E1E1E0" d="M391.783,145.848c-0.664,9.304-2.894,13.154-9.197,14.502c-4.033,0.861-9.583-0.847-13.629-9.625
	c-3.542-7.687,2.647-12.619,8.95-13.966S392.386,137.407,391.783,145.848"/>
<path fill="#E1E1E0" d="M375.33,142.702c1.17,2.658,0.296,5.616-1.953,6.608c-2.249,0.99-5.021-0.36-6.194-3.019
	c-1.172-2.658-1.16-7.578,1.09-8.569C370.521,136.731,374.158,140.043,375.33,142.702"/>
<path fill="#E1E1E0" d="M378.233,141.33c0.779,2.96-0.516,5.867-2.894,6.493c-2.376,0.625-4.935-1.267-5.714-4.227
	s-0.06-8.05,2.317-8.676C374.321,134.294,377.455,138.37,378.233,141.33"/>
<path fill="#E1E1E0" d="M384.346,140.586c0.479,3.024-1.363,5.827-4.118,6.263c-2.751,0.436-5.372-1.661-5.849-4.686
	c-0.479-3.022,1.012-8.057,3.764-8.493C380.895,133.235,383.869,137.564,384.346,140.586"/>
<path fill="#E1E1E0" d="M390.757,143.389c-0.284,3.752-2.874,6.616-5.789,6.396c-2.912-0.22-5.046-3.438-4.761-7.192
	c0.282-3.751,3.082-9.383,5.995-9.162C389.116,133.648,391.041,139.636,390.757,143.389"/>
<path fill="#EACCCC" d="M387.361,139.051c0.075,2.335-0.982,4.262-2.361,4.307c-1.379,0.044-2.557-1.813-2.632-4.147
	s0.982-4.263,2.362-4.307C386.109,134.86,387.286,136.718,387.361,139.051"/>
<path fill="#EACCCC" d="M379.657,138.456c0.362,1.856-0.176,3.522-1.203,3.722c-1.025,0.2-2.149-1.142-2.513-2.997
	c-0.362-1.855,0.176-3.522,1.203-3.722C378.168,135.257,379.294,136.6,379.657,138.456"/>
<path fill="#EACCCC" d="M373.801,138.777c0.497,1.568,0.099,3.092-0.892,3.406c-0.989,0.312-2.191-0.704-2.689-2.272
	c-0.495-1.566-0.098-3.092,0.893-3.403C372.1,136.193,373.305,137.209,373.801,138.777"/>
<path fill="#EACCCC" d="M369.048,142.933c0.293,1.617,0.116,3.005-0.397,3.098c-0.512,0.092-1.164-1.143-1.459-2.762
	c-0.292-1.617-0.114-3.005,0.397-3.098S368.755,141.315,369.048,142.933"/>
<path fill="#EACCCC" d="M369.5,148.774c0.638-0.386,4.616-4.182,6.456-4.596c1.841-0.415,6.314-0.938,8.391,0.77
	c2.076,1.707,3.307,2.88-0.626,4.732s-5.756-0.88-8.235-0.079c-2.478,0.8-5.571,1.013-5.571,1.013L369.5,148.774z"/>
<path fill="#E1E1E0" d="M382.741,159.998c4.926,0.55,21.692-10.18,23.801-11.594c2.109-1.415-12.396-3.861-12.396-3.861
	s-18.516,10.947-20.591,11.39C371.479,156.375,380.517,159.75,382.741,159.998"/>
<path fill="#EBEAEA" d="M413.739,150.657c-3.545,9.606-7.072,12.984-14.13,12.479c-4.517-0.325-9.845-3.822-11.428-14.315
	c-1.385-9.187,6.65-12.496,13.706-11.987C408.945,137.338,416.957,141.94,413.739,150.657"/>
<path fill="#EBEAEA" d="M397.353,142.309c0.422,3.16-1.404,6.013-4.08,6.369c-2.675,0.357-5.184-1.914-5.605-5.076
	c-0.425-3.16,1.091-8.344,3.767-8.702C394.109,134.542,396.931,139.148,397.353,142.309"/>
<path fill="#EACCCC" d="M390.863,140.45c0.045,1.805-0.382,3.277-0.954,3.293c-0.571,0.013-1.07-1.438-1.115-3.243
	c-0.045-1.804,0.383-3.278,0.954-3.292C390.319,137.192,390.819,138.644,390.863,140.45"/>
<defs>
	<filter id="Adobe_OpacityMaskFilter_5_" filterUnits="userSpaceOnUse" x="391.79" y="134.928" width="1.923" height="3.155">
		<feColorMatrix  type="matrix" values="1 0 0 0 0  0 1 0 0 0  0 0 1 0 0  0 0 0 1 0"/>
	</filter>
</defs>
<mask maskUnits="userSpaceOnUse" x="391.79" y="134.928" width="1.923" height="3.155" id="SVGID_40_">
	<g filter="url(#Adobe_OpacityMaskFilter_5_)">
		<g>
			<defs>
				<rect id="SVGID_41_" x="391.791" y="134.928" width="1.922" height="3.155"/>
			</defs>
			<clipPath id="SVGID_42_">
				<use xlink:href="#SVGID_41_"  overflow="visible"/>
			</clipPath>
			<rect x="391.31" y="134.928" clip-path="url(#SVGID_42_)" width="2.401" height="4.219"/>
			<g enable-background="new    ">
				<g>
					<defs>
						<rect id="SVGID_43_" x="391.31" y="134.928" width="2.402" height="4.219"/>
					</defs>
					<clipPath id="SVGID_44_" clip-path="url(#SVGID_42_)">
						<use xlink:href="#SVGID_43_"  overflow="visible"/>
					</clipPath>
					<path clip-path="url(#SVGID_44_)" fill="#FFFFFF" d="M397.353,142.309c0.422,3.16-1.404,6.013-4.079,6.369
						c-2.675,0.358-5.185-1.914-5.607-5.076c-0.423-3.16,1.092-8.344,3.768-8.702C394.109,134.542,396.931,139.148,397.353,142.309"
						/>
				</g>
			</g>
		</g>
	</g>
</mask>
<g opacity="0.2" mask="url(#SVGID_40_)">
	<g>
		<defs>
			<rect id="SVGID_45_" x="391.791" y="134.928" width="1.922" height="3.155"/>
		</defs>
		<clipPath id="SVGID_46_">
			<use xlink:href="#SVGID_45_"  overflow="visible"/>
		</clipPath>
		<path clip-path="url(#SVGID_46_)" d="M392.327,134.928c0,0,0.293,1.158-0.45,2.894c-0.566,1.324,1.836-2.812,1.836-2.812
			L392.327,134.928z"/>
	</g>
</g>
<path fill="#EBEAEA" d="M400.833,141.75c-0.083,3.358-2.337,6.027-5.037,5.961c-2.695-0.066-4.814-2.845-4.731-6.203
	c0.084-3.359,2.399-8.507,5.098-8.439S400.918,138.392,400.833,141.75"/>
<defs>
	<filter id="Adobe_OpacityMaskFilter_6_" filterUnits="userSpaceOnUse" x="397.965" y="134.555" width="2.051" height="4.745">
		<feColorMatrix  type="matrix" values="1 0 0 0 0  0 1 0 0 0  0 0 1 0 0  0 0 0 1 0"/>
	</filter>
</defs>
<mask maskUnits="userSpaceOnUse" x="397.965" y="134.555" width="2.051" height="4.745" id="SVGID_47_">
	<g filter="url(#Adobe_OpacityMaskFilter_6_)">
		<g>
			<defs>
				<rect id="SVGID_48_" x="397.965" y="134.555" width="2.051" height="4.745"/>
			</defs>
			<clipPath id="SVGID_49_">
				<use xlink:href="#SVGID_48_"  overflow="visible"/>
			</clipPath>
			<rect x="397.314" y="134.555" clip-path="url(#SVGID_49_)" width="2.703" height="6.56"/>
			<g enable-background="new    ">
				<g>
					<defs>
						<rect id="SVGID_50_" x="397.314" y="134.555" width="2.703" height="6.56"/>
					</defs>
					<clipPath id="SVGID_51_" clip-path="url(#SVGID_49_)">
						<use xlink:href="#SVGID_50_"  overflow="visible"/>
					</clipPath>
					<path clip-path="url(#SVGID_51_)" fill="#FFFFFF" d="M400.834,141.751c-0.083,3.357-2.338,6.026-5.037,5.961
						c-2.695-0.067-4.815-2.846-4.732-6.205c0.084-3.358,2.401-8.506,5.098-8.438C398.861,133.136,400.919,138.392,400.834,141.751"
						/>
				</g>
			</g>
		</g>
	</g>
</mask>
<g opacity="0.2" mask="url(#SVGID_47_)">
	<g>
		<defs>
			<rect id="SVGID_52_" x="397.965" y="134.555" width="2.051" height="4.745"/>
		</defs>
		<clipPath id="SVGID_53_">
			<use xlink:href="#SVGID_52_"  overflow="visible"/>
		</clipPath>
		<path clip-path="url(#SVGID_53_)" d="M398.719,134.556c0,0,0.244,1.517-0.604,4.108c-0.803,2.449,1.9-2.974,1.9-2.974
			L398.719,134.556z"/>
	</g>
</g>
<path fill="#EBEAEA" d="M407.506,142.835c-0.42,3.335-3.219,5.728-6.256,5.344c-3.032-0.381-5.156-3.394-4.734-6.728
	c0.419-3.334,3.529-8.186,6.564-7.805C406.117,134.03,407.927,139.501,407.506,142.835"/>
<path fill="#EACCCC" d="M403.619,139.833c-0.186,2.067-1.262,3.66-2.406,3.558c-1.143-0.103-1.918-1.861-1.732-3.928
	c0.186-2.068,1.263-3.661,2.405-3.558C403.029,136.006,403.806,137.766,403.619,139.833"/>
<path fill="#EACCCC" d="M397.477,138.391c0.045,1.804-0.842,3.289-1.983,3.318c-1.136,0.026-2.095-1.413-2.14-3.219
	c-0.045-1.804,0.843-3.29,1.982-3.316C396.472,135.145,397.432,136.586,397.477,138.391"/>
<defs>
	<filter id="Adobe_OpacityMaskFilter_7_" filterUnits="userSpaceOnUse" x="405.406" y="136.084" width="1.981" height="3.861">
		<feColorMatrix  type="matrix" values="1 0 0 0 0  0 1 0 0 0  0 0 1 0 0  0 0 0 1 0"/>
	</filter>
</defs>
<mask maskUnits="userSpaceOnUse" x="405.406" y="136.084" width="1.981" height="3.861" id="SVGID_54_">
	<g filter="url(#Adobe_OpacityMaskFilter_7_)">
		<g>
			<defs>
				<rect id="SVGID_55_" x="405.406" y="136.084" width="1.981" height="3.861"/>
			</defs>
			<clipPath id="SVGID_56_">
				<use xlink:href="#SVGID_55_"  overflow="visible"/>
			</clipPath>
			<rect x="404.791" y="136.084" clip-path="url(#SVGID_56_)" width="2.597" height="4.924"/>
			<g enable-background="new    ">
				<g>
					<defs>
						<rect id="SVGID_57_" x="404.791" y="136.084" width="2.597" height="4.925"/>
					</defs>
					<clipPath id="SVGID_58_" clip-path="url(#SVGID_56_)">
						<use xlink:href="#SVGID_57_"  overflow="visible"/>
					</clipPath>
					<path clip-path="url(#SVGID_58_)" fill="#FFFFFF" d="M407.506,142.835c-0.421,3.335-3.22,5.727-6.257,5.344
						c-3.032-0.381-5.155-3.394-4.734-6.728c0.42-3.334,3.53-8.186,6.564-7.805C406.116,134.03,407.927,139.502,407.506,142.835"/>
				</g>
			</g>
		</g>
	</g>
</mask>
<g opacity="0.2" mask="url(#SVGID_54_)">
	<g>
		<defs>
			<rect id="SVGID_59_" x="405.406" y="136.084" width="1.981" height="3.861"/>
		</defs>
		<clipPath id="SVGID_60_">
			<use xlink:href="#SVGID_59_"  overflow="visible"/>
		</clipPath>
		<path clip-path="url(#SVGID_60_)" d="M406.197,136.084c0,0,0.096,2.121-0.654,3.523c-0.751,1.4,1.845-2.006,1.845-2.006
			L406.197,136.084z"/>
	</g>
</g>
<path fill="#EBEAEA" d="M413.41,147.75c-1.447,3.869-5.054,6.099-8.06,4.976c-3.002-1.122-4.269-5.171-2.821-9.04
	c1.445-3.868,6.119-8.95,9.123-7.827C414.657,136.978,414.855,143.879,413.41,147.75"/>
<path fill="#EACCCC" d="M411.569,142.686c-0.634,2.485-2.337,4.194-3.807,3.819c-1.467-0.375-2.142-2.693-1.506-5.177
	c0.635-2.483,2.338-4.193,3.807-3.819C411.531,137.884,412.204,140.203,411.569,142.686"/>
<path fill="#EACCCC" d="M389.35,146.928c0.508-0.879,6.145-2.996,8.212-2.87c2.066,0.125,6.944,0.94,8.612,3.376
	c1.666,2.435,2.604,4.047-2.107,4.798c-4.713,0.75-5.8-2.688-8.659-2.601c-2.857,0.085-5.692-0.267-6.184-0.636
	C388.732,148.625,388.841,147.807,389.35,146.928"/>
<path fill="#EBEAEA" d="M406.079,162.007c6.271-2.312,14.668-5.827,16.561-7.718c1.892-1.892-9.394-8.049-9.394-8.049
	s-16.137,13.121-18.191,14C392.999,161.121,403.867,162.824,406.079,162.007"/>
<path fill="#FFFFFF" d="M107.064,49.016c-1.012,21.53-19.285,38.164-40.816,37.151C44.721,85.155,28.086,66.881,29.1,45.351
	C30.111,23.821,48.385,7.188,69.914,8.2C91.445,9.212,108.077,27.486,107.064,49.016"/>
<path fill="#A3A3A3" d="M67.869,47.53c-9.221-0.434-17.049,6.691-17.482,15.913l-0.479,10.175c0,0,8.706,1.97,16.803,2.492
	c8.097,0.522,16.592-0.922,16.592-0.922l0.479-10.175C84.215,55.792,77.091,47.964,67.869,47.53"/>
<path fill="none" stroke="#646464" stroke-width="2" stroke-linecap="round" stroke-miterlimit="10" d="M58.092,64.879
	c5.224,1.742,9.4-3.769,9.4-3.769s5.053,6.381,9.928,4.466"/>
<line fill="none" stroke="#646464" stroke-width="2" stroke-miterlimit="10" x1="67.492" y1="61.11" x2="67.725" y2="56.153"/>
<path fill="#676767" d="M72.116,54.528c-0.112,2.378-2.129,4.215-4.507,4.103c-2.377-0.112-4.214-2.13-4.103-4.508
	c0.112-2.377,2.057-2.648,4.434-2.536C70.318,51.698,72.228,52.15,72.116,54.528"/>
<defs>
	<filter id="Adobe_OpacityMaskFilter_8_" filterUnits="userSpaceOnUse" x="48.167" y="72.951" width="37.736" height="5.55">
		<feColorMatrix  type="matrix" values="1 0 0 0 0  0 1 0 0 0  0 0 1 0 0  0 0 0 1 0"/>
	</filter>
</defs>
<mask maskUnits="userSpaceOnUse" x="48.167" y="72.951" width="37.736" height="5.55" id="SVGID_61_">
	<g filter="url(#Adobe_OpacityMaskFilter_8_)">
		<g>
			<defs>
				<rect id="SVGID_62_" x="48.167" y="72.951" width="37.736" height="5.55"/>
			</defs>
			<clipPath id="SVGID_63_">
				<use xlink:href="#SVGID_62_"  overflow="visible"/>
			</clipPath>
			<rect x="48.167" y="72.715" clip-path="url(#SVGID_63_)" width="39.701" height="6.007"/>
			<g enable-background="new    ">
				<g>
					<defs>
						<rect id="SVGID_64_" x="48.167" y="72.715" width="39.701" height="6.008"/>
					</defs>
					<clipPath id="SVGID_65_" clip-path="url(#SVGID_63_)">
						<use xlink:href="#SVGID_64_"  overflow="visible"/>
					</clipPath>
					<path clip-path="url(#SVGID_65_)" fill="#FFFFFF" d="M67.869,47.53c-9.221-0.434-17.049,6.691-17.482,15.913l-0.479,10.175
						c0,0,8.706,1.97,16.803,2.492c8.097,0.523,16.592-0.922,16.592-0.922l0.479-10.175C84.215,55.792,77.091,47.964,67.869,47.53"
						/>
				</g>
			</g>
		</g>
	</g>
</mask>
<g opacity="0.1" mask="url(#SVGID_61_)">
	<g>
		<defs>
			<rect id="SVGID_66_" x="48.167" y="72.951" width="37.736" height="5.55"/>
		</defs>
		<clipPath id="SVGID_67_">
			<use xlink:href="#SVGID_66_"  overflow="visible"/>
		</clipPath>
		<path clip-path="url(#SVGID_67_)" d="M48.167,74.543c0,0,12.537-1.828,19.589-1.567c7.052,0.261,15.933,1.567,18.022,3.134
			c2.09,1.567-22.723,2.612-23.507,2.351C61.488,78.2,48.167,74.543,48.167,74.543"/>
	</g>
</g>
<path fill="#FFFFFF" d="M63.458,8.807c0,0,7.77-1.819,8.277-8.807c0,0,2.527,8.717-6.289,12.275"/>
<path fill="#FFFFFF" d="M64.357,10.625c0,0,7.975,0.301,10.312-6.305c0,0,0.132,9.076-9.31,10.175"/>
<path fill="#FFFFFF" d="M65.017,12.698c0,0,7.776,1.796,11.313-4.252c0,0-1.577,8.938-11.058,8.242"/>
<path fill="#676767" d="M61.221,54.472c-0.018,0.396-0.354,0.701-0.75,0.683s-0.701-0.354-0.682-0.75
	c0.018-0.396,0.354-0.703,0.749-0.683C60.935,53.74,61.239,54.076,61.221,54.472"/>
<path fill="#676767" d="M60.985,59.489c-0.018,0.396-0.354,0.702-0.75,0.683c-0.396-0.018-0.701-0.354-0.682-0.75
	c0.018-0.396,0.354-0.702,0.75-0.684S61.003,59.093,60.985,59.489"/>
<path fill="#676767" d="M57.79,57.184c-0.019,0.395-0.355,0.701-0.75,0.683c-0.396-0.019-0.702-0.355-0.683-0.75
	c0.018-0.397,0.354-0.702,0.75-0.684C57.501,56.451,57.808,56.788,57.79,57.184"/>
<path fill="#676767" d="M57.554,62.201c-0.018,0.396-0.355,0.702-0.75,0.683c-0.396-0.019-0.702-0.354-0.683-0.75
	c0.018-0.396,0.354-0.702,0.75-0.683C57.266,61.47,57.573,61.805,57.554,62.201"/>
<path fill="#676767" d="M73.837,55.064c-0.019,0.396,0.287,0.732,0.683,0.751c0.396,0.018,0.732-0.288,0.751-0.684
	c0.018-0.396-0.288-0.732-0.684-0.751C74.191,54.362,73.855,54.668,73.837,55.064"/>
<path fill="#676767" d="M73.601,60.082c-0.019,0.396,0.287,0.732,0.683,0.751c0.396,0.018,0.732-0.288,0.751-0.684
	c0.018-0.396-0.288-0.731-0.684-0.75C73.956,59.381,73.619,59.686,73.601,60.082"/>
<path fill="#676767" d="M76.999,58.086c-0.018,0.396,0.287,0.732,0.683,0.75c0.395,0.019,0.732-0.287,0.75-0.682
	c0.019-0.397-0.288-0.733-0.683-0.752C77.353,57.385,77.018,57.69,76.999,58.086"/>
<path fill="#676767" d="M76.763,63.104c-0.018,0.395,0.288,0.731,0.684,0.75c0.394,0.019,0.731-0.287,0.749-0.683
	c0.019-0.396-0.287-0.732-0.683-0.75C77.118,62.402,76.782,62.708,76.763,63.104"/>
<path fill="#F3F3F3" d="M46.976,14.402c-15.714-5.47-27.197,12.327-31.773,21.576c-4.575,9.249,6.793,31.669,14.438,32.621
	c7.645,0.95,9.302-46.885,9.302-46.885L46.976,14.402z"/>
<path fill="#F3F3F3" d="M92.341,16.534c16.157-3.973,25.922,14.824,29.609,24.461c3.688,9.638-9.733,30.893-17.434,31.122
	c-7.7,0.23-4.863-47.55-4.863-47.55L92.341,16.534z"/>
<defs>
	<filter id="Adobe_OpacityMaskFilter_9_" filterUnits="userSpaceOnUse" x="99.469" y="37.193" width="30.396" height="36.752">
		<feColorMatrix  type="matrix" values="1 0 0 0 0  0 1 0 0 0  0 0 1 0 0  0 0 0 1 0"/>
	</filter>
</defs>
<mask maskUnits="userSpaceOnUse" x="99.469" y="37.193" width="30.396" height="36.752" id="SVGID_68_">
	<g filter="url(#Adobe_OpacityMaskFilter_9_)">
		<g>
			<defs>
				<rect id="SVGID_69_" x="99.47" y="37.193" width="30.395" height="36.752"/>
			</defs>
			<clipPath id="SVGID_70_">
				<use xlink:href="#SVGID_69_"  overflow="visible"/>
			</clipPath>
			<rect x="99.011" y="37.193" clip-path="url(#SVGID_70_)" width="31.518" height="36.916"/>
			<g enable-background="new    ">
				<g>
					<defs>
						<rect id="SVGID_71_" x="99.011" y="37.193" width="31.518" height="36.916"/>
					</defs>
					<clipPath id="SVGID_72_" clip-path="url(#SVGID_70_)">
						<use xlink:href="#SVGID_71_"  overflow="visible"/>
					</clipPath>
					<path clip-path="url(#SVGID_72_)" fill="#F3F3F3" d="M92.341,16.534c16.157-3.973,25.922,14.824,29.609,24.461
						c3.688,9.638-9.733,30.893-17.433,31.122c-7.7,0.23-4.864-47.55-4.864-47.55L92.341,16.534z"/>
				</g>
			</g>
		</g>
	</g>
</mask>
<g opacity="0.1" mask="url(#SVGID_68_)">
	<g>
		<defs>
			<rect id="SVGID_73_" x="99.47" y="37.193" width="30.395" height="36.752"/>
		</defs>
		<clipPath id="SVGID_74_">
			<use xlink:href="#SVGID_73_"  overflow="visible"/>
		</clipPath>
		<path clip-path="url(#SVGID_74_)" d="M124.783,37.193c0.522,5.398,0.001,10.448-7.487,19.328
			c-7.488,8.881-10.1,11.145-12.712,11.145c-2.612,0-3.831-1.742-4.701-2.438c-0.871-0.697-0.174,6.094,0.348,6.442
			c0.521,0.349,1.567,2.439,3.308,2.264c1.741-0.174,5.224-2.089,6.965-2.612c1.742-0.522,4.005-0.697,6.791-3.482
			c2.787-2.786,13.234-21.419,12.537-23.856C129.136,41.547,124.783,37.193,124.783,37.193"/>
	</g>
</g>
<path fill="none" stroke="#7E7E7E" stroke-width="4" stroke-miterlimit="10" d="M29.641,68.599c0.221,1.607-0.109,0.845-1.018,2.044
	c-0.908,1.198-2.274,2.05-3.881,2.272c-1.608,0.221-3.153-0.23-4.352-1.139c-1.199-0.908-2.051-2.275-2.272-3.882
	c-0.221-1.607,0.231-3.153,1.139-4.351c0.909-1.199,2.274-2.051,3.882-2.272"/>
<path d="M57.458,41.667c-0.056,0.964-1.531-0.085-3.128-0.177c-1.595-0.092-2.709,0.807-2.654-0.157
	c0.056-0.965,1.396-1.672,2.991-1.58C56.264,39.846,57.513,40.703,57.458,41.667"/>
<path d="M86.192,43.066c-0.055,0.964-1.5-0.083-3.064-0.173c-1.562-0.091-2.653,0.81-2.598-0.154
	c0.056-0.965,1.369-1.673,2.932-1.583C85.025,41.247,86.249,42.102,86.192,43.066"/>
<path d="M57.458,41.667c-0.072,1.248-1.558-0.086-3.182-0.179c-1.622-0.094-2.77,1.088-2.698-0.161
	c0.073-1.248,0.466-3.881,3.077-3.838C56.936,37.528,57.53,40.419,57.458,41.667"/>
<path d="M86.585,43.089c-0.072,1.249-1.526-0.083-3.116-0.175c-1.589-0.092-2.714,1.09-2.643-0.158
	c0.073-1.249,0.671-4.312,3.019-4.274C85.883,38.516,86.659,41.84,86.585,43.089"/>
<path fill="none" stroke="#303030" stroke-linecap="round" stroke-miterlimit="10" d="M400.717,88.652
	c0,0,17.568,10.664,26.061,5.018"/>
<path fill="none" stroke="#303030" stroke-linecap="round" stroke-miterlimit="10" d="M400.555,93.026
	c0,0,15.528,13.464,24.848,9.325"/>
<path fill="none" stroke="#303030" stroke-linecap="round" stroke-miterlimit="10" d="M369.686,83.24c0,0-13.727,5.832-17.646-1.731
	"/>
<path fill="none" stroke="#303030" stroke-linecap="round" stroke-miterlimit="10" d="M368.688,87.485
	c0,0-13.148,9.036-17.966,2.714"/>
<g opacity="0.07">
	<g>
		<defs>
			<rect id="SVGID_75_" x="407.555" y="136.782" width="17.576" height="24.659"/>
		</defs>
		<clipPath id="SVGID_76_">
			<use xlink:href="#SVGID_75_"  overflow="visible"/>
		</clipPath>
		<path clip-path="url(#SVGID_76_)" d="M424.187,136.782c0,0,2.331,12.724-0.329,16.497c-1.604,2.273-8.079,4.886-16.125,8.162
			c-1.75-0.478,9.879-5.546,12.479-9.095C423.864,147.362,424.681,140.614,424.187,136.782"/>
	</g>
</g>
</svg>
