<?xml version="1.0" encoding="utf-8"?>
<!-- Generator: Adobe Illustrator 16.0.4, SVG Export Plug-In . SVG Version: 6.00 Build 0)  -->
<!DOCTYPE svg PUBLIC "-//W3C//DTD SVG 1.1//EN" "http://www.w3.org/Graphics/SVG/1.1/DTD/svg11.dtd">
<svg version="1.1" id="Layer_1" xmlns="http://www.w3.org/2000/svg" xmlns:xlink="http://www.w3.org/1999/xlink" x="0px" y="0px"
	 width="428.515px" height="545.203px" viewBox="131.843 131.967 428.515 545.203"
	 enable-background="new 131.843 131.967 428.515 545.203" xml:space="preserve">
<path id="tail" fill="#E6E6E5" d="M223.118,528.192c-38.818-8.395-67.145-34.272-68.194-60.501
	c-1.399,2.798-2.448,5.944-3.147,9.093c-6.295,29.376,22.382,66.795,66.096,76.237C261.236,562.464,257.39,535.536,223.118,528.192z
	"/>
<g id="body">
	<ellipse fill="#90B3C6" cx="259.838" cy="665.629" rx="127.995" ry="11.541"/>
	<g>
		<path fill="#F2F3F3" d="M481.207,418.382c-28.327,1.748-36.021-2.099-48.261-3.497c0.698-3.146,1.397-5.944,2.099-8.743
			c5.944-23.431-26.579-56.304-67.146-68.543c-44.414-13.289-92.325-12.24-99.668,13.989c-3.147,11.89-7.344,24.83-12.24,38.468
			c-22.731,4.546-59.451,22.731-67.495,41.267c-5.246,12.239,1.399,25.879,6.994,41.267c4.896,13.639,15.388,20.283,23.431,18.534
			c-3.147,7.694-5.595,14.339-7.344,19.234c0,0.35-0.35,0.698-0.35,1.05c-0.35,0.35-0.35,1.049-0.7,1.397
			c-3.847,11.19-2.797,23.432,2.448,35.321l-31.474,93.022l62.948,21.334l23.081-67.495c1.399,0.698,2.798,1.05,4.546,1.749
			c8.743,3.146,17.835,5.244,26.229,6.295v62.599h66.446v-80.784c1.398-1.397,2.448-2.798,3.497-4.546
			c19.584-20.284,38.469-72.041,52.807-119.952c30.775,1.398,41.616,1.049,66.796-5.246
			C516.528,447.059,512.331,416.283,481.207,418.382z M243.401,425.026c-5.596,15.736-11.541,30.773-16.437,44.414
			C224.517,450.556,218.921,435.168,243.401,425.026z"/>
		<path fill="#FFFFFF" d="M366.501,664.931c0-10.142-15.737-18.186-34.972-18.186c-19.235,0-34.972,8.044-34.972,18.186"/>
		<path fill="#C5C4C4" d="M356.358,664.931c0-6.295-1.748-11.541-4.196-11.541s-4.196,5.246-4.196,11.541"/>
		<path fill="#C5C4C4" d="M337.125,664.931c0-6.295-1.749-11.541-4.197-11.541c-2.446,0-4.195,5.246-4.195,11.541"/>
		<path fill="#C5C4C4" d="M317.891,664.931c0-6.295-1.749-11.541-4.196-11.541s-4.196,5.246-4.196,11.541"/>
	</g>
	<path fill="#D6D6D6" d="M370.697,338.647c-68.895-22.032-94.423-2.798-101.067,8.043c-2.448,4.196-10.492,32.523-13.989,43.015
		c-4.546,1.049-8.043,3.147-13.289,5.945c-23.781,12.59,7.694,20.283,3.497,21.333c-19.584,9.093-32.523,11.19-27.278,37.069
		c1.399,7.693,4.197,16.786,3.147,22.382c-2.098,14.688-8.393,14.339-6.295,14.688c11.191,0.35,13.989-6.295,12.59-18.885
		c-2.798-24.13-11.541-40.218,26.928-51.407c14.688-4.896,27.977,26.578,57.353,34.971c30.425,8.395,102.816,14.688,113.657-10.491
		c0.35-1.049,1.748-4.195,3.497-9.441c1.748-5.245,3.847-12.24,5.246-21.332c0.35-3.497,1.049-6.994,1.397-10.842
		C438.192,370.471,388.183,344.242,370.697,338.647z"/>
	<g>
		<path fill="#FFFFFF" d="M244.101,665.63c3.147-9.442,5.246-19.233-25.18-31.125c-18.185-6.994-39.867-1.748-43.364,7.694"/>
		<path fill="#C5C4C4" d="M219.97,657.936c2.098-5.943,1.749-11.539-0.35-12.238c-2.098-0.7-5.595,3.497-7.694,9.441"/>
		<path fill="#C5C4C4" d="M204.233,651.642c2.099-5.944,1.749-11.541-0.35-12.239c-2.098-0.699-5.595,3.497-7.693,9.441"/>
		<path fill="#C5C4C4" d="M190.245,647.095c2.098-5.944,1.749-11.54-0.35-12.239s-5.596,3.496-7.694,9.441"/>
	</g>
	<g>
		<circle fill="#C24F27" cx="359.856" cy="462.096" r="24.13"/>
		<g>
			<path fill="#FFFFFF" d="M378.041,463.845c-0.35-0.698-4.896-5.944-5.945-6.295l0,0l0,0c0,0,0,0,0.699,1.049
				c1.05,1.051,0.7,1.399,0.7,1.749c0,0.351-0.351,0.351-0.7,0.351c-0.699,0-2.447-0.699-3.497-2.1
				c-2.098-2.447-5.944-9.441-6.994-12.938c-0.35-1.049,0-1.748,0.351-1.748h0.699l0,0v-0.35c0,0-0.35-0.351-1.05-0.351
				c0,0-1.748-0.351-3.146,0.699c-1.049,1.049-1.398,2.798-1.398,5.245c0.699,5.246,0.351,5.944-1.749,7.345
				c-0.35,0.35-0.699,0.699-0.699,1.049c0,0.699,0.351,1.398,0.699,1.398c0.7,0.35,1.399,0.35,1.749,0.35
				c0.351-0.35,0.699-0.699,1.049-1.049c0.351-1.398,0-3.147,0-4.546l-0.35-1.749c0-0.699,0-1.049,0.699-1.748
				c0.699-0.7,1.749-0.7,2.099-0.35c0.699,0.35,1.398,1.748,1.748,2.446l0.352,0.7l2.098,4.196c1.398,3.146,2.099,4.546,4.896,5.945
				l0.699,0.35c3.847,1.748,4.196,1.748,4.896,1.748C378.391,465.243,378.391,464.194,378.041,463.845z"/>
			<path fill="#FFFFFF" d="M370.348,465.243c-4.896-2.099-5.246-2.798-5.596-5.245c0-0.7-0.35-1.05-0.699-1.05
				c-0.699-0.351-1.398-0.351-1.749,0c-0.698,0.35-1.049,1.05-1.049,1.398c0,0.35,0,1.05,0.351,1.398
				c1.049,1.05,2.447,1.749,3.847,2.099l1.749,0.699c0.699,0.35,1.049,0.699,1.049,1.399c0,0.698-0.35,1.748-0.699,2.098
				c-0.349,0.35-2.099,0.35-3.146,0.35h-0.699l-4.547-0.35c-3.497-0.35-4.896-0.35-7.693,1.399l-0.699,0.35
				c-3.497,2.098-3.497,2.798-3.847,3.497c-0.351,1.397,0.699,1.748,1.049,1.748c1.049,0,7.693-1.398,8.395-1.748l0,0l0,0
				c0,0,0,0-1.399,0c-1.397,0.35-1.748,0-2.099-0.351c0,0,0-0.35,0-0.699c0.351-0.699,1.749-1.748,3.498-2.099
				c3.146-0.35,11.189-0.35,14.688,0.699c1.049,0.351,1.749,0.699,1.398,1.398l-0.351,0.699l0,0l0,0c0,0,0.351,0,0.7-0.699
				c0,0,1.049-1.398,0.699-3.147C374.194,467.691,372.795,466.293,370.348,465.243z"/>
			<path fill="#FFFFFF" d="M351.463,467.342c4.196-3.146,4.896-3.497,7.344-2.448c0.351,0.351,1.051,0,1.051,0
				c0.698-0.35,0.698-1.049,1.049-1.397c0-0.699-0.351-1.399-0.699-1.399c-0.35-0.35-1.05-0.35-1.399-0.35
				c-1.397,0.35-2.798,1.399-3.847,2.448l-1.397,1.049c-0.7,0.35-1.051,0.35-1.749,0.35c-0.699-0.35-1.398-1.049-1.398-1.748
				c-0.35-0.698,0.699-2.099,1.398-2.798l0.35-0.699l2.448-3.847c2.099-2.798,2.798-4.197,2.447-7.345v-1.049
				c-0.35-4.196-0.699-4.546-1.05-4.896c-1.049-1.049-1.748-0.35-1.748,0c-0.698,0.7-2.447,7.345-2.447,8.044l0,0l0,0
				c0,0,0,0,0.35-1.049c0.35-1.399,0.699-1.399,1.049-1.749c0.352,0,0.352,0,0.7,0.35c0.699,0.699,0.699,2.1,0,4.197
				c-1.05,2.797-5.246,10.143-7.694,12.589c-0.698,0.7-1.397,1.05-1.748,0.7l-0.35-0.7l0,0l0,0c0,0,0,0.351,0.35,1.05
				c0,0,0.699,1.748,2.448,2.099C347.616,469.44,349.364,468.74,351.463,467.342z"/>
		</g>
	</g>
	<path opacity="0.1" enable-background="new    " d="M305.65,597.785c-5.246,0.699-22.382,1.049-38.119-3.147
		c-3.847-1.049,12.24,5.597,30.076,7.693c29.375,3.497,48.959-13.988,48.959-13.988C329.78,595.688,316.142,596.387,305.65,597.785z
		"/>
	<path opacity="0.1" enable-background="new    " d="M481.557,428.523c-15.388,2.099-40.917-2.1-43.015,16.087
		c-1.399,12.59,3.147,14.338,9.792,15.736c5.945,0,19.934-0.35,29.376-3.497c-16.087-0.35-36.021,3.848-32.174-12.59
		C447.984,433.069,457.076,432.37,481.557,428.523z"/>
	<path fill="#C24F27" d="M328.382,436.566c30.774,10.842,74.489,3.146,102.466-8.043l3.849-15.737
		c-27.628,14.688-69.943,21.683-101.769,10.841c-33.572-11.54-55.954-31.124-67.844-62.249l-5.596,18.535
		C274.526,408.24,295.858,425.376,328.382,436.566z"/>
</g>
<g id="face">
	<path fill="#FFFFFF" d="M398.324,163.44c0.35-1.049,0.35-2.098,0.35-2.098c-0.35,0.699-0.699,1.049-1.397,1.749
		c-2.448-0.7-5.246-1.049-7.693-1.399c3.497-7.694,3.147-14.688,3.147-14.688c-2.1,6.295-5.945,10.841-10.143,13.989
		c-1.398,0-2.798-0.35-4.197-0.35c8.395-13.289,4.197-28.676,4.197-28.676c-1.398,17.485-15.737,25.879-23.432,29.026
		c-67.495,5.246-122.4,60.151-125.547,129.744c-3.498,75.189,54.555,139.186,129.745,142.684
		c75.188,3.497,139.186-54.556,142.683-130.094C509.184,235.831,462.322,177.079,398.324,163.44z"/>
	<path fill="#F2F3F3" d="M295.858,182.325c-54.905-19.234-95.123,43.015-111.209,75.538
		c-16.086,32.174,23.781,110.859,50.359,114.007c26.579,3.497,32.523-164.016,32.523-164.016L295.858,182.325z"/>
	<path fill="#F2F3F3" d="M454.629,190.019c56.653-13.989,90.575,51.757,103.515,85.68c12.939,33.573-33.922,108.062-60.85,108.761
		s-17.136-166.114-17.136-166.114L454.629,190.019z"/>
	<g>
		<path opacity="0.1" enable-background="new    " d="M496.944,384.809c19.934-0.699,50.357-40.917,60.149-75.538
			c-3.847,6.295-8.743,13.289-15.388,20.983c-26.229,31.125-35.32,38.818-44.413,38.818c-6.645,0-10.491-3.147-13.289-5.596
			C486.803,376.416,490.999,384.809,496.944,384.809z"/>
	</g>
	<path fill="#7E7E7E" d="M215.424,394.251c-5.945,0-11.89-2.098-16.437-5.595c-5.945-4.546-9.792-10.841-10.491-18.186
		c-1.049-7.344,1.049-14.688,5.246-20.283c4.546-5.945,10.841-9.792,18.185-10.492l1.749,13.989
		c-3.497,0.35-6.645,2.448-9.092,5.246c-2.099,2.798-3.147,6.295-2.798,10.142c0.35,3.497,2.448,6.645,5.246,9.092
		c2.798,2.098,6.295,3.147,10.142,2.798c3.498-0.35,6.645-2.448,9.093-5.246c1.399-1.749,2.098-3.498,2.798-4.896
		c2.448,1.398,4.896,1.749,8.043,1.749c2.797,0,4.546-1.749,6.645-4.896c0,1.399,0,3.497-0.35,4.546
		c-1.049,3.847-3.498,8.394-6.295,11.891c-4.546,5.945-10.841,9.792-18.185,10.491C217.872,394.251,216.473,394.251,215.424,394.251
		z"/>
	<path fill="#A3A3A3" d="M368.948,298.43c-32.174-1.399-59.451,23.431-61.199,55.604L306,389.705c0,0,30.425,6.994,58.752,8.743
		c28.327,1.748,58.053-3.147,58.053-3.147l1.748-35.671C426.302,327.106,401.122,299.829,368.948,298.43z"/>
	<path fill="#666767" d="M405.669,359.979c-0.7-1.749-2.798-2.798-4.547-2.098c-12.59,4.896-26.578-9.792-29.726-13.639l0.35-7.693
		c6.645-1.399,11.891-6.995,12.24-13.989c0.35-8.393-6.295-9.792-14.688-10.142c-8.393-0.35-15.037,0.699-15.387,8.743
		c-0.351,6.994,4.196,13.289,10.841,15.038l-0.35,8.043c-2.799,3.497-14.688,15.737-28.327,11.191
		c-1.748-0.699-3.847,0.35-4.546,2.098c-0.699,1.748,0.35,3.847,2.098,4.546c15.737,5.246,28.677-5.595,33.923-11.191
		c4.896,5.246,15.737,15.038,27.978,15.038c2.447,0,5.246-0.35,8.044-1.399C405.669,363.826,406.368,362.078,405.669,359.979z"/>
	<g>
		<g>
			<circle fill="#666767" cx="343.419" cy="322.56" r="2.448"/>
			<circle fill="#666767" cx="342.37" cy="340.046" r="2.448"/>
			<circle fill="#666767" cx="331.18" cy="332.002" r="2.448"/>
			<circle fill="#666767" cx="330.48" cy="349.488" r="2.448"/>
		</g>
		<g>
			<circle fill="#666767" cx="392.38" cy="324.658" r="2.448"/>
			<circle fill="#666767" cx="391.68" cy="342.144" r="2.448"/>
			<circle fill="#666767" cx="403.57" cy="335.499" r="2.448"/>
			<circle fill="#666767" cx="402.521" cy="352.985" r="2.448"/>
		</g>
	</g>
	<path id="chin" opacity="0.1" enable-background="new    " d="M423.154,394.951c-7.345-5.595-31.476-10.142-55.954-11.89
		c-24.48-1.399-60.852,5.945-60.852,5.945s36.37,7.693,58.752,9.093C384.336,399.497,410.914,397.749,423.154,394.951z"/>
</g>
<g id="eyes-open">
	<path d="M332.229,277.796c-0.35,4.197-5.596-0.35-11.189-0.699c-5.596-0.35-9.792,3.847-9.442-0.7
		c0.351-4.196,1.748-13.639,10.842-13.289C330.48,263.458,332.578,273.25,332.229,277.796z"/>
	<path d="M434.345,282.692c-0.35,4.197-5.245-0.35-10.841-0.699c-5.596-0.349-9.441,3.847-9.093-0.699
		c0.35-4.197,2.448-15.038,10.492-15.038C431.897,266.605,434.345,278.496,434.345,282.692z"/>
</g>
<g id="eyes-closed">
	<path d="M332.229,277.796c-0.35,3.498-5.246-0.35-10.841-0.699c-5.596-0.35-9.442,2.798-9.442-0.7
		c0.35-3.497,4.896-5.945,10.491-5.595C328.032,271.502,332.578,274.299,332.229,277.796z"/>
	<path d="M432.946,282.692c-0.35,3.498-5.246-0.35-10.841-0.699c-5.596-0.35-9.442,2.798-9.093-0.699s4.896-5.945,10.142-5.596
		C428.75,276.397,432.946,279.195,432.946,282.692z"/>
</g>
</svg>
