<?xml version="1.0" encoding="utf-8"?>
<!-- Generator: Adobe Illustrator 16.0.4, SVG Export Plug-In . SVG Version: 6.00 Build 0)  -->
<!DOCTYPE svg PUBLIC "-//W3C//DTD SVG 1.1//EN" "http://www.w3.org/Graphics/SVG/1.1/DTD/svg11.dtd">
<svg version="1.1" id="Layer_1" xmlns="http://www.w3.org/2000/svg" xmlns:xlink="http://www.w3.org/1999/xlink" x="0px" y="0px"
	 width="562.959px" height="238.132px" viewBox="27.266 278.11 562.959 238.132"
	 enable-background="new 27.266 278.11 562.959 238.132" xml:space="preserve">
<g>
	<g>
		<g>
			<polygon fill="#164A78" points="153.785,394.431 153.785,345.981 135.15,345.981 135.15,394.431 111.611,394.431 
				111.611,278.504 135.15,278.504 135.15,324.796 153.785,324.796 153.785,278.504 177.323,278.504 177.323,394.431 			"/>
			<path fill="#0C94D2" d="M177.127,278.7v115.535h-23.146v-48.45h-19.223v48.254h-22.95V278.7h22.95v46.292h19.223V278.7H177.127
				 M177.519,278.11h-0.392h-23.146h-0.393v0.394v45.899h-18.242V278.7v-0.59h-0.392h-23.146h-0.392v0.394v115.535v0.392h0.392
				h22.95h0.588v-0.392v-47.666h18.242v47.86v0.394h0.393h22.95h0.393v-0.394V278.7v-0.59H177.519L177.519,278.11z"/>
		</g>
		<g>
			<path fill="#164A78" d="M244.8,394.431l-3.727-18.046h-26.285l-3.727,18.046h-24.519l29.815-115.927h23.146l29.815,115.927H244.8
				z M236.562,355.2l-8.631-41.389L219.3,355.2H236.562z"/>
			<path fill="#0C94D2" d="M239.308,278.7l29.619,115.535h-23.931l-3.727-18.047h-26.677l-3.727,18.047h-23.931l29.62-115.535
				H239.308 M219.104,355.396h17.85l-8.827-42.761L219.104,355.396 M239.7,278.11h-0.393h-22.754h-0.392v0.394l-29.619,115.535
				l-0.196,0.588h0.588h23.931h0.393v-0.392l3.727-17.654h25.893l3.727,17.654v0.392h0.392h23.931h0.589l-0.196-0.588L239.7,278.504
				V278.11L239.7,278.11z M219.692,354.808l8.238-39.818l8.239,39.818H219.692L219.692,354.808z"/>
		</g>
		<g>
			<path fill="#164A78" d="M278.734,394.431V278.504h32.758c22.558,0,32.758,11.377,32.758,36.877
				c0,25.892-10.004,37.466-32.758,37.466h-9.415v41.584H278.734L278.734,394.431z M311.688,331.465
				c8.238,0,9.023-8.237,9.023-15.888s-0.785-15.889-9.023-15.889h-9.61v31.776H311.688z"/>
			<path fill="#0C94D2" d="M311.492,278.7c24.912,0,32.365,14.123,32.365,36.681c0,22.754-7.453,37.073-32.365,37.073h-9.611v41.584
				h-22.95V278.7H311.492 M301.881,331.662h9.809c8.826,0,9.219-8.827,9.219-16.281c0-7.258-0.393-16.084-9.219-16.084h-9.809
				V331.662 M311.492,278.11H278.93h-0.392v0.394v115.535v0.392h0.392h22.95h0.392v-0.392v-41.192h9.023
				c22.754,0,32.954-11.572,32.954-37.662C344.446,289.685,334.246,278.11,311.492,278.11L311.492,278.11z M302.469,299.885h9.219
				c8.043,0,8.827,7.65,8.827,15.496c0,7.65-0.589,15.692-8.827,15.692h-9.219V299.885L302.469,299.885z"/>
		</g>
		<g>
			<path fill="#164A78" d="M357.589,394.431V278.504h32.757c22.56,0,32.758,11.377,32.758,36.877
				c0,25.892-10.004,37.466-32.758,37.466h-9.415v41.584H357.589L357.589,394.431z M390.542,331.465
				c8.239,0,9.023-8.237,9.023-15.888s-0.784-15.889-9.023-15.889h-9.415v31.776H390.542z"/>
			<path fill="#0C94D2" d="M390.542,278.7c24.912,0,32.365,14.123,32.365,36.681c0,22.754-7.453,37.073-32.365,37.073h-9.611v41.584
				h-22.949V278.7H390.542 M380.931,331.662h9.809c8.827,0,9.22-8.827,9.22-16.281c0-7.258-0.393-16.084-9.22-16.084h-9.809V331.662
				 M390.542,278.11H357.98h-0.393v0.394v115.535v0.392h0.393h22.949h0.394v-0.392v-41.192h9.021
				c22.754,0,32.954-11.572,32.954-37.662C423.3,289.685,413.296,278.11,390.542,278.11L390.542,278.11z M381.323,299.885h9.219
				c8.043,0,8.827,7.65,8.827,15.496c0,7.65-0.589,15.692-8.827,15.692h-9.219V299.885L381.323,299.885z"/>
		</g>
		<g>
			<polygon fill="#164A78" points="450.958,394.431 450.958,350.688 427.419,278.504 453.312,278.504 462.727,319.5 
				472.339,278.504 498.23,278.504 474.496,350.688 474.496,394.431 			"/>
			<path fill="#0C94D2" d="M497.839,278.7L474.3,350.688v43.545h-22.95v-43.545L427.812,278.7h25.304l9.808,41.781l9.809-41.781
				H497.839 M498.427,278.11h-0.588h-25.305h-0.393v0.394l-9.416,39.819l-9.219-39.819v-0.394h-0.393H427.81h-0.589l0.196,0.59
				l23.539,71.988v43.35v0.393h0.392h22.95h0.394v-0.393v-43.35L498.23,278.7L498.427,278.11L498.427,278.11z"/>
		</g>
	</g>
	<g>
		<ellipse fill="#90B3C6" cx="308.746" cy="512.908" rx="281.479" ry="3.334"/>
		<g>
			<polygon fill="#164A78" points="78.266,513.104 78.266,464.654 59.631,464.654 59.631,513.104 36.092,513.104 36.092,397.177 
				59.631,397.177 59.631,443.469 78.266,443.469 78.266,397.177 101.804,397.177 101.804,513.104 			"/>
			<path fill="#0C94D2" d="M101.608,397.373v115.535H78.461v-48.254H59.238v48.254H36.484V397.373h22.95v46.292h19.027v-46.292
				H101.608 M102,396.98h-0.392H78.461h-0.392v0.393v45.9H59.827v-45.9v-0.393h-0.393h-22.95h-0.392v0.393v115.535v0.392h0.392
				h22.95h0.393v-0.392v-47.862h18.242v47.862v0.392h0.392h22.95H102v-0.392V397.373V396.98L102,396.98z"/>
		</g>
		<g>
			<path fill="#164A78" d="M149.666,514.281c-13.731,0-20.4-5.885-25.304-11.573c-8.63-10.396-8.63-29.424-8.63-44.724v-5.688
				c0-15.3,0-34.327,8.63-44.723c4.904-5.688,11.573-11.573,25.304-11.573c14.123,0,20.988,6.277,25.696,11.573
				c8.827,10.396,8.631,29.423,8.631,44.723v5.688c0,15.301,0,34.326-8.631,44.724C170.85,508.2,163.789,514.281,149.666,514.281z
				 M149.666,416.988c-3.531,0-5.885,1.373-7.454,4.314c-2.746,5.296-3.138,19.225-3.138,33.542c0,14.319,0.392,28.442,3.138,33.543
				c1.569,2.942,3.923,4.315,7.454,4.315c3.727,0,6.277-1.569,7.65-4.315c2.746-5.296,3.139-19.224,3.139-33.543
				c0-14.317-0.393-28.44-3.139-33.542C155.942,418.558,153.392,416.988,149.666,416.988z"/>
			<path fill="#0C94D2" d="M149.666,396c12.946,0,20.204,5.1,25.5,11.573c9.219,10.983,8.631,31.973,8.631,47.469
				s0.588,36.485-8.631,47.47c-5.296,6.276-12.554,11.573-25.5,11.573s-19.812-5.101-25.108-11.573
				c-9.219-10.983-8.631-31.974-8.631-47.47s-0.588-36.484,8.631-47.469C130.05,401.296,136.719,396,149.666,396 M149.666,493.292
				c4.119,0,6.669-1.961,8.042-4.511c2.747-5.297,3.139-19.812,3.139-33.739s-0.392-28.442-3.139-33.738
				c-1.373-2.55-3.727-4.512-8.042-4.512c-4.119,0-6.277,1.962-7.65,4.512c-2.747,5.296-3.139,19.812-3.139,33.738
				s0.392,28.442,3.139,33.739C143.389,491.331,145.546,493.292,149.666,493.292 M149.666,395.608
				c-13.731,0-20.596,5.884-25.5,11.769c-8.827,10.592-8.827,29.619-8.631,44.919v2.942v2.941c0,15.301,0,34.523,8.631,44.919
				c4.904,5.688,11.769,11.771,25.5,11.771c14.123,0,21.185-6.276,25.892-11.771c8.827-10.592,8.827-29.618,8.631-44.919v-2.941
				v-2.942c0-15.3,0-34.521-8.631-44.919C171.046,401.885,163.789,395.608,149.666,395.608L149.666,395.608z M149.666,492.9
				c-3.531,0-5.688-1.373-7.258-4.315c-2.746-5.101-2.942-19.224-2.942-33.543s0.393-28.246,2.942-33.542
				c1.569-2.942,3.727-4.315,7.258-4.315c3.531,0,6.081,1.373,7.454,4.315c2.746,5.1,2.942,19.223,2.942,33.542
				s-0.392,28.246-2.942,33.543C155.746,491.527,153.392,492.9,149.666,492.9L149.666,492.9z"/>
		</g>
		<g>
			<polygon fill="#164A78" points="197.919,513.104 197.919,397.177 221.458,397.177 221.458,491.919 251.666,491.919 
				251.666,513.104 			"/>
			<path fill="#0C94D2" d="M221.262,397.373v94.742h30.208v20.793h-53.158V397.373H221.262 M221.654,396.98h-0.392h-22.95h-0.392
				v0.393v115.535v0.392h0.392h53.158h0.392v-0.392v-20.793v-0.394h-0.392h-29.815v-94.152L221.654,396.98L221.654,396.98z"/>
		</g>
		<g>
			<rect x="264.023" y="397.177" fill="#164A78" width="23.54" height="115.927"/>
			<path fill="#0C94D2" d="M287.169,397.373v115.535h-22.95V397.373H287.169 M287.758,396.98h-0.393h-22.95h-0.393v0.393v115.535
				v0.392h0.393h22.95h0.393v-0.392V397.373V396.98L287.758,396.98z"/>
		</g>
		<g>
			<path fill="#164A78" d="M304.823,513.104V397.177h32.758c13.927,0,20.988,6.081,25.5,11.182
				c8.826,10.199,8.631,28.835,8.631,43.938v5.492c0,15.104,0,33.739-8.631,43.938c-4.512,5.298-11.573,11.183-25.5,11.183h-32.758
				V513.104z M337.188,491.919c3.728,0,6.865-1.765,8.436-4.903c2.746-5.297,2.746-19.42,2.746-31.974
				c0-12.946,0-26.284-2.746-31.58c-1.569-3.139-4.512-4.904-8.436-4.904h-8.826v73.361H337.188z"/>
			<path fill="#0C94D2" d="M337.777,397.373c12.944,0,20.203,5.1,25.304,11.181c9.219,10.789,8.631,31.386,8.631,46.488
				c0,15.104,0.588,35.896-8.631,46.489c-5.101,6.08-12.358,11.181-25.304,11.181h-32.562V397.373H337.777 M328.165,492.115h9.023
				c4.118,0,7.062-2.157,8.631-5.101c2.746-5.297,2.746-19.224,2.746-32.17c0-12.75,0-26.479-2.746-31.775
				c-1.373-2.942-4.315-5.102-8.631-5.102h-9.023V492.115 M337.777,396.98h-32.562h-0.392v0.393v115.535v0.392h0.392h32.562
				c14.123,0,21.185-6.081,25.694-11.377c8.827-10.2,8.827-29.03,8.632-44.135v-2.746v-2.746c0-15.104,0-33.935-8.632-44.135
				C358.766,402.865,351.704,396.98,337.777,396.98L337.777,396.98z M328.558,418.558h8.632c3.727,0,6.669,1.767,8.237,4.708
				c2.746,5.297,2.746,18.636,2.746,31.58c0,12.556,0,26.679-2.746,31.975c-1.568,2.941-4.512,4.708-8.237,4.708h-8.632V418.558
				L328.558,418.558z"/>
		</g>
		<g>
			<path fill="#164A78" d="M433.5,513.104l-3.727-18.046h-26.285l-3.728,18.046h-24.52l29.814-115.927h23.146l29.814,115.927H433.5z
				 M425.262,473.873l-8.631-41.389L408,473.873H425.262z"/>
			<path fill="#0C94D2" d="M428.008,397.373l29.619,115.535h-23.931l-3.729-18.047h-26.677l-3.727,18.047h-23.932l29.619-115.535
				H428.008 M407.804,474.069h17.852l-8.827-42.763L407.804,474.069 M428.4,396.98h-0.394h-22.754h-0.393v0.393l-29.619,115.535
				l-0.196,0.588h0.589h23.932h0.393v-0.393l3.727-17.653h25.894l3.727,17.653v0.393h0.394h23.931h0.589l-0.196-0.588L428.4,397.373
				V396.98L428.4,396.98z M408.393,473.677l8.238-39.818l8.238,39.818H408.393L408.393,473.677z"/>
		</g>
		<g>
			<polygon fill="#164A78" points="471.75,513.104 471.75,469.361 448.016,397.177 473.907,397.177 483.52,438.173 492.935,397.177 
				518.827,397.177 495.288,469.361 495.288,513.104 			"/>
			<path fill="#0C94D2" d="M518.435,397.373l-23.537,71.988v43.547h-22.95v-43.547l-23.539-71.988h25.305l9.809,41.781l9.808-41.781
				H518.435 M519.219,396.98h-0.588h-25.304h-0.394v0.393l-9.219,39.819l-9.22-39.819v-0.393h-0.394H448.8h-0.588l0.196,0.589
				l23.538,71.987v43.352v0.392h0.393h22.949h0.393v-0.392v-43.547l23.539-71.988L519.219,396.98L519.219,396.98z"/>
		</g>
		<g>
			<path fill="#164A78" d="M553.35,514.281c-10.983,0-19.614-2.942-25.106-8.437c-5.296-5.492-7.649-13.142-7.649-25.892v-0.196
				h23.538v0.196c0,4.903,0.394,8.042,2.354,10.396c1.178,1.179,3.139,2.746,6.864,2.746c3.335,0,5.688-0.979,7.062-2.746
				c1.568-1.765,2.157-4.707,2.157-9.61c0-10.984-1.767-12.75-9.809-16.084l-14.516-6.081
				c-10.984-4.708-16.673-10.396-16.673-29.229c0-10.983,3.53-20.007,10.396-25.892c5.688-4.904,12.945-7.454,21.38-7.454
				c10.005,0,17.654,2.55,22.95,7.454c6.081,5.492,9.023,14.319,9.023,26.873v0.196h-23.538v-0.196c0-3.923,0-7.65-1.962-10.2
				c-1.373-1.962-3.531-2.746-6.475-2.746c-2.745,0-5.1,0.98-6.473,2.942c-1.373,1.766-1.961,4.119-1.961,8.042
				c0,7.258,1.373,9.22,7.846,11.966l14.517,5.885c15.104,6.276,19.025,13.143,19.025,33.542c0,10.984-1.373,19.615-7.453,25.894
				C572.966,511.143,563.746,514.281,553.35,514.281z"/>
			<path fill="#0C94D2" d="M553.35,396.393c10.2,0,17.654,2.551,22.754,7.259c6.277,5.884,8.827,15.104,8.827,26.677h-22.949
				c0-4.119,0-7.847-1.962-10.396c-1.372-1.766-3.335-2.941-6.67-2.941c-3.334,0-5.296,1.373-6.669,3.139
				c-1.373,1.962-1.962,4.315-1.962,8.238c0,7.258,1.374,9.416,8.043,12.162l14.517,5.884c14.515,6.081,18.83,12.555,18.83,33.347
				c0,11.771-1.373,19.812-7.453,25.696c-5.102,5.1-13.928,8.631-25.108,8.631c-11.377,0-19.812-3.335-24.911-8.435
				c-5.688-5.688-7.649-13.731-7.649-25.696h22.95c0,4.707,0.393,8.042,2.354,10.592c1.373,1.373,3.53,2.746,7.062,2.746
				c3.53,0,5.885-0.979,7.258-2.942c1.568-1.961,2.354-5.1,2.354-9.808c0-10.984-1.766-12.946-10.004-16.28l-14.516-6.081
				c-11.771-4.902-16.478-10.983-16.478-29.029c0-10.789,3.334-19.616,10.396-25.696
				C537.658,398.942,544.523,396.393,553.35,396.393 M553.35,396c-8.631,0-15.888,2.55-21.575,7.454
				c-6.865,5.885-10.594,14.907-10.594,26.088c0,19.027,5.688,24.912,16.869,29.424l14.517,6.08
				c8.042,3.335,9.808,5.102,9.808,15.889c0,4.708-0.588,7.65-2.157,9.415c-1.374,1.963-3.531,2.746-6.866,2.746
				c-3.727,0-5.688-1.373-6.864-2.55c-1.961-2.157-2.354-5.296-2.354-10.2v-0.392h-0.393h-22.95h-0.393v0.392
				c0,12.75,2.354,20.598,7.847,25.894c5.688,5.688,14.318,8.631,25.304,8.631c10.396,0,19.812-3.139,25.5-8.827
				c6.277-6.08,7.65-14.907,7.65-25.892c0-20.598-3.923-27.658-19.027-33.936l-14.516-5.885c-6.474-2.746-7.649-4.512-7.649-11.77
				c0-3.924,0.588-6.277,1.767-8.042c1.372-1.963,3.529-2.942,6.275-2.942c2.942,0,4.904,0.784,6.277,2.746
				c1.765,2.55,1.765,6.081,1.765,10.004v0.392h0.394h22.949h0.394v-0.392c0-12.554-2.942-21.381-9.023-27.069
				C571.2,398.354,563.354,396,553.35,396L553.35,396z"/>
		</g>
	</g>
</g>
</svg>
